<svg version="1.1" id="Layer_1" xmlns="http://www.w3.org/2000/svg" x="0" y="0" viewBox="0 0 360 640" style="enable-background:new 0 0 360 640" xml:space="preserve">
  <style>
    .st1{fill:#fff}.st2{fill:none}.st8{fill:#fff;fill-opacity:4.000000e-02}.st15{fill:none;stroke:#fff;stroke-width:1.4;stroke-linecap:round;stroke-linejoin:round}.st16{display:none;fill:#fff}
  </style>
  <linearGradient id="SVGID_1_" gradientUnits="userSpaceOnUse" x1="372.18" y1="314.554" x2="-12.167" y2="329.526" gradientTransform="matrix(1 0 0 -1 0 642)">
    <stop offset="0" style="stop-color:#d6ff7f"/>
    <stop offset="1" style="stop-color:#00b3cc"/>
  </linearGradient>
  <path d="M360 615c-13.8 0-25 11.2-25 25H25c0-13.8-11.2-25-25-25V435.6c5.2-1.3 9-6 9-11.6s-3.8-10.3-9-11.6V35c13.8 0 25-11.2 25-25 0-3.6-.7-6.9-2.1-10h314.2c-1.3 3.1-2.1 6.4-2.1 10 0 13.8 11.2 25 25 25v377.4c-5.2 1.3-9 6-9 11.6s3.8 10.3 9 11.6V615z" style="fill-rule:evenodd;clip-rule:evenodd;fill:url(#SVGID_1_)"/>
  <path class="st1" d="M233 525v-11.6h2.4v4.4h.1c.1-.2.3-.5.5-.7.2-.2.5-.5.8-.6.3-.2.7-.2 1.2-.2.6 0 1.2.2 1.8.5.5.3 1 .8 1.3 1.5.3.7.5 1.5.5 2.5s-.2 1.8-.5 2.5-.7 1.2-1.3 1.5c-.5.3-1.1.5-1.8.5-.5 0-.9-.1-1.2-.2-.3-.2-.6-.3-.8-.6-.2-.2-.4-.5-.5-.7h-.1v1.4H233zm2.4-4.4c0 .5.1 1 .2 1.4.1.4.4.7.6.9.3.2.6.3 1 .3s.7-.1 1-.3c.3-.2.5-.5.6-.9.1-.4.2-.8.2-1.3s-.1-.9-.2-1.3-.3-.7-.6-.9c-.3-.2-.6-.3-1-.3s-.7.1-1 .3c-.3.2-.5.5-.6.9-.1.3-.2.7-.2 1.2zm13.3.7v-5h2.4v8.7h-2.3v-1.6h-.1c-.2.5-.5.9-1 1.2-.5.3-1 .5-1.7.5-.6 0-1.1-.1-1.5-.4-.4-.3-.8-.6-1-1.1-.2-.5-.4-1.1-.4-1.8v-5.6h2.4v5.1c0 .5.1.9.4 1.2.3.3.6.4 1.1.4.3 0 .6-.1.8-.2.3-.1.5-.3.6-.6.3-.1.3-.4.3-.8zm4.4 3.7v-8.7h2.4v8.7h-2.4zm1.2-9.9c-.4 0-.7-.1-.9-.4-.3-.2-.4-.5-.4-.9 0-.3.1-.6.4-.9.3-.2.6-.4.9-.4s.7.1.9.4c.3.2.4.5.4.9 0 .3-.1.6-.4.9-.2.3-.5.4-.9.4zm5.6-1.7V525h-2.4v-11.6h2.4zm5.1 11.7c-.7 0-1.3-.2-1.8-.5s-1-.9-1.3-1.5c-.3-.7-.5-1.5-.5-2.5s.2-1.8.5-2.5.8-1.2 1.3-1.5c.5-.3 1.1-.5 1.8-.5.5 0 .9.1 1.2.2.3.2.6.4.8.6.2.2.4.5.5.7h.1v-4.4h2.4V525h-2.4v-1.4h-.1c-.1.2-.3.5-.5.7-.2.2-.5.4-.8.6-.3.2-.7.2-1.2.2zm.8-1.9c.4 0 .7-.1 1-.3.3-.2.5-.5.6-.9.1-.4.2-.8.2-1.4 0-.5-.1-1-.2-1.4-.1-.4-.4-.7-.6-.9-.3-.2-.6-.3-1-.3s-.7.1-1 .3c-.3.2-.5.5-.6.9-.1.4-.2.8-.2 1.3s.1 1 .2 1.3c.1.4.4.7.6.9.3.4.6.5 1 .5zm13.4-4.4-2.2.1c0-.2-.1-.4-.2-.5-.1-.2-.3-.3-.5-.4-.2-.1-.4-.1-.7-.1-.4 0-.7.1-.9.2-.3.2-.4.4-.4.6 0 .2.1.4.2.5.2.1.5.3.9.3l1.6.3c.8.2 1.5.5 1.9.8.4.4.6.9.6 1.5s-.2 1.1-.5 1.5c-.3.4-.8.8-1.4 1-.6.2-1.2.4-2 .4-1.2 0-2.1-.2-2.8-.7-.7-.5-1.1-1.1-1.2-2l2.4-.1c.1.4.2.6.5.8.3.2.6.3 1.1.3.4 0 .8-.1 1-.2.3-.2.4-.4.4-.6 0-.2-.1-.4-.3-.5-.2-.1-.5-.3-.8-.3l-1.5-.3c-.9-.2-1.5-.5-1.9-.9-.4-.4-.6-1-.6-1.6 0-.6.2-1 .5-1.4.3-.4.7-.7 1.3-.9.6-.2 1.2-.3 2-.3 1.1 0 2 .2 2.6.7.5.3.8 1 .9 1.8zm1.8 9.5v-12h2.4v1.5h.1c.1-.2.3-.5.5-.7.2-.2.5-.5.8-.6.3-.2.7-.2 1.2-.2.6 0 1.2.2 1.8.5.5.3 1 .8 1.3 1.5.3.7.5 1.5.5 2.5s-.2 1.8-.5 2.5-.7 1.2-1.3 1.5c-.5.3-1.1.5-1.8.5-.5 0-.9-.1-1.2-.2-.3-.2-.6-.3-.8-.6-.2-.2-.4-.5-.5-.7h-.1v4.7H281zm2.3-7.7c0 .5.1 1 .2 1.4.1.4.4.7.6.9.3.2.6.3 1 .3s.7-.1 1-.3c.3-.2.5-.5.6-.9.1-.4.2-.8.2-1.3s-.1-.9-.2-1.3-.3-.7-.6-.9c-.3-.2-.6-.3-1-.3s-.7.1-1 .3c-.3.2-.5.5-.6.9-.1.3-.2.7-.2 1.2zm10.3 4.6c-.6 0-1.1-.1-1.5-.3-.4-.2-.8-.5-1-.9-.2-.4-.4-.9-.4-1.4 0-.5.1-.9.3-1.2.2-.3.4-.6.7-.8.3-.2.7-.4 1-.5.4-.1.8-.2 1.2-.2.5-.1.9-.1 1.2-.1.3 0 .5-.1.7-.2.1-.1.2-.2.2-.4 0-.4-.1-.6-.3-.8-.2-.2-.5-.3-1-.3-.4 0-.8.1-1 .3-.3.2-.4.4-.5.7l-2.2-.2c.1-.5.3-1 .7-1.4.3-.4.8-.7 1.3-.9.5-.2 1.1-.3 1.8-.3.5 0 .9.1 1.4.2.4.1.8.3 1.2.5.3.2.6.5.8.9.2.4.3.8.3 1.3v5.9h-2.3v-1.2h-.1c-.1.3-.3.5-.6.7-.2.2-.5.4-.8.5-.3 0-.7.1-1.1.1zm.7-1.7c.4 0 .7-.1.9-.2.3-.1.5-.3.6-.6.2-.2.2-.5.2-.8v-.9c-.1 0-.2.1-.3.1-.1 0-.3.1-.4.1-.2 0-.3.1-.5.1s-.3 0-.4.1c-.3 0-.5.1-.7.2-.2.1-.4.2-.5.4-.1.2-.2.3-.2.6s.1.6.4.8c.2 0 .5.1.9.1zm10 1.7c-.9 0-1.7-.2-2.3-.6-.6-.4-1.1-.9-1.5-1.6-.3-.7-.5-1.5-.5-2.3 0-.9.2-1.7.5-2.4s.8-1.2 1.5-1.6c.6-.4 1.4-.6 2.3-.6.8 0 1.4.1 2 .4.6.3 1 .7 1.4 1.2.3.5.5 1.1.6 1.8H306c-.1-.4-.2-.8-.5-1.1-.3-.3-.6-.4-1.1-.4-.4 0-.7.1-1 .3-.3.2-.5.5-.6.9-.2.4-.2.9-.2 1.4 0 .6.1 1 .2 1.4.2.4.4.7.7.9.3.2.6.3 1 .3.3 0 .5-.1.7-.2.2-.1.4-.3.6-.5.1-.2.2-.5.3-.8h2.3c0 .7-.2 1.3-.5 1.8s-.8.9-1.3 1.2c-.8.3-1.5.5-2.3.5zm9.4 0c-.9 0-1.7-.2-2.3-.5-.6-.4-1.1-.9-1.5-1.6-.3-.7-.5-1.5-.5-2.4 0-.9.2-1.7.5-2.4s.8-1.2 1.5-1.6c.6-.4 1.4-.6 2.2-.6.6 0 1.1.1 1.6.3.5.2.9.5 1.3.8.4.4.7.8.9 1.4.2.6.3 1.2.3 1.9v.7h-7.4v-1.5h5.1c0-.3-.1-.7-.2-.9-.2-.3-.4-.5-.6-.6-.3-.2-.6-.2-.9-.2-.4 0-.7.1-1 .3-.3.2-.5.4-.7.7-.2.3-.2.6-.2.9v1.4c0 .4.1.8.2 1.1.2.3.4.6.7.7.3.2.6.3 1.1.3.3 0 .5 0 .7-.1l.6-.3c.2-.2.3-.3.4-.6l2.2.1c-.1.5-.3 1-.7 1.4-.3.4-.8.7-1.4.9-.5.3-1.1.4-1.9.4zM277.4 545.2c-.6 0-1.1-.1-1.5-.3-.4-.2-.8-.5-1-.9-.2-.4-.4-.9-.4-1.4 0-.5.1-.9.3-1.2.2-.3.4-.6.7-.8.3-.2.7-.4 1-.5.4-.1.8-.2 1.2-.2.5-.1.9-.1 1.2-.1.3 0 .5-.1.7-.2.1-.1.2-.2.2-.4 0-.4-.1-.6-.3-.8-.2-.2-.5-.3-1-.3-.4 0-.8.1-1 .3-.3.2-.4.4-.5.7l-2.2-.2c.1-.5.3-1 .7-1.4.3-.4.8-.7 1.3-.9.5-.2 1.1-.3 1.8-.3.5 0 .9.1 1.4.2.4.1.8.3 1.2.5.3.2.6.5.8.9.2.4.3.8.3 1.3v5.9H280v-1.2c-.1.3-.3.5-.6.7-.2.2-.5.4-.8.5-.4 0-.7.1-1.2.1zm.7-1.7c.4 0 .7-.1.9-.2.3-.1.5-.3.6-.6.2-.2.2-.5.2-.8v-.9c-.1 0-.2.1-.3.1-.1 0-.3.1-.4.1-.2 0-.3.1-.5.1s-.3 0-.4.1c-.3 0-.5.1-.7.2-.2.1-.4.2-.5.4-.1.2-.2.3-.2.6s.1.6.4.8c.2 0 .5.1.9.1zm10.8-7.2v1.8h-5.4v-1.8h5.4zm-4.1 8.7v-9.4c0-.6.1-1.2.4-1.6.2-.4.6-.7 1-.9.4-.2.9-.3 1.5-.3.4 0 .7 0 1 .1.3.1.5.1.7.2l-.4 1.8c-.1 0-.2-.1-.4-.1h-.4c-.4 0-.6.1-.7.2-.1.2-.2.4-.2.7v9.3h-2.5zm5.6 0v-8.7h2.3v1.5h.1c.2-.5.4-1 .8-1.2.4-.3.8-.4 1.3-.4h.4c.1 0 .3 0 .4.1v2.1c-.1 0-.3-.1-.5-.1h-.6c-.4 0-.7.1-1 .2-.3.2-.5.4-.7.6-.2.3-.2.6-.2.9v4.9h-2.3zm6.5 0v-8.7h2.4v8.7h-2.4zm1.3-9.9c-.4 0-.7-.1-.9-.4-.3-.2-.4-.5-.4-.9 0-.3.1-.6.4-.9.3-.2.6-.4.9-.4.4 0 .7.1.9.4.3.2.4.5.4.9 0 .3-.1.6-.4.9-.3.3-.6.4-.9.4zm7 10.1c-.9 0-1.7-.2-2.3-.6-.6-.4-1.1-.9-1.5-1.6-.3-.7-.5-1.5-.5-2.3 0-.9.2-1.7.5-2.4s.8-1.2 1.5-1.6c.6-.4 1.4-.6 2.3-.6.8 0 1.4.1 2 .4.6.3 1 .7 1.4 1.2.3.5.5 1.1.6 1.8h-2.3c-.1-.4-.2-.8-.5-1.1-.3-.3-.6-.4-1.1-.4-.4 0-.7.1-1 .3-.3.2-.5.5-.6.9-.2.4-.2.9-.2 1.4 0 .6.1 1 .2 1.4.2.4.4.7.7.9.3.2.6.3 1 .3.3 0 .5-.1.7-.2.2-.1.4-.3.6-.5.1-.2.2-.5.3-.8h2.3c0 .7-.2 1.3-.5 1.8s-.8.9-1.3 1.2-1.5.5-2.3.5zm8 0c-.6 0-1.1-.1-1.5-.3-.4-.2-.8-.5-1-.9-.2-.4-.4-.9-.4-1.4 0-.5.1-.9.3-1.2.2-.3.4-.6.7-.8.3-.2.7-.4 1-.5.4-.1.8-.2 1.2-.2.5-.1.9-.1 1.2-.1.3 0 .5-.1.7-.2.1-.1.2-.2.2-.4 0-.4-.1-.6-.3-.8-.2-.2-.5-.3-1-.3-.4 0-.8.1-1 .3-.3.2-.4.4-.5.7l-2.2-.2c.1-.5.3-1 .7-1.4.3-.4.8-.7 1.3-.9.5-.2 1.1-.3 1.8-.3.5 0 .9.1 1.4.2.4.1.8.3 1.2.5.3.2.6.5.8.9.2.4.3.8.3 1.3v5.9h-2.3v-1.2h-.1c-.1.3-.3.5-.6.7-.2.2-.5.4-.8.5-.3 0-.7.1-1.1.1zm.7-1.7c.4 0 .7-.1.9-.2.3-.1.5-.3.6-.6.2-.2.2-.5.2-.8v-.9c-.1 0-.2.1-.3.1-.1 0-.3.1-.4.1-.2 0-.3.1-.5.1s-.3 0-.4.1c-.3 0-.5.1-.7.2-.2.1-.4.2-.5.4-.1.2-.2.3-.2.6s.1.6.4.8c.2 0 .5.1.9.1z"/>
  <path class="st2" d="M186 513h34v34h-34z"/>
  <path d="M351 424c0-5.6 3.8-10.3 9-11.6V35c-13.8 0-25-11.2-25-25 0-3.6.7-6.9 2.1-10H22.9C24.3 3.1 25 6.4 25 10c0 13.8-11.2 25-25 25v377.4c5.2 1.3 9 6 9 11.6 0 .7-.1 1.4-.2 2h342.3c0-.6-.1-1.3-.1-2z" style="fill-rule:evenodd;clip-rule:evenodd;fill:#130102"/>
  <path d="M42 60c0-6.1 4.9-11 11-11h255c6.1 0 11 4.9 11 11v365H42V60z" style="fill:none;stroke:#fff;stroke-width:2;stroke-opacity:.12"/>
  <!-- <path class="st1" d="M55 587.2v1.8h-2.3l-.7 4.7h2.2v1.9h-2.5l-.6 3.5h-1.9l.6-3.5h-3.2L46 599h-2l.6-3.5h-2v-1.9H45l.7-4.7h-2.3v-1.8H46l.5-3.2h1.9l-.5 3.2h3.2l.5-3.2h1.9l-.5 3.2h2zm-5 6.5.7-4.7h-3.1l-.8 4.7H50zm12.7 5.3h-2.9v-12.5l-4 .5v-2.4l6.9-.8V599zm14.3-7.6c0 2.9-.4 4.9-1.3 6-.8 1.2-2.4 1.7-4.6 1.7-1.4 0-2.5-.2-3.2-.5-.8-.3-1.4-.9-1.8-1.6-.3-.6-.5-1.3-.7-2.2-.1-.9-.2-2.1-.2-3.5 0-2.8.4-4.8 1.3-6 .9-1.2 2.4-1.8 4.6-1.8 1.4 0 2.4.2 3.2.5.8.3 1.4.9 1.8 1.6.3.6.5 1.3.7 2.2.1 1.1.2 2.2.2 3.6zm-2.9 0c0-2.1-.2-3.5-.6-4.1-.4-.7-1.2-1-2.4-1s-2 .3-2.4 1c-.4.7-.6 2.1-.6 4.1 0 2.1.2 3.4.6 4.1.4.7 1.2 1 2.4 1s2-.3 2.4-1c.4-.7.6-2 .6-4.1zm13.7 4.9v2.7h-9.5v-2.7l5.3-5.7c.4-.5.8-.9.9-1.3.2-.4.3-.8.3-1.3s-.2-.9-.5-1.2c-.3-.3-.7-.4-1.3-.4-.6 0-1.4.1-2.3.2-.9.1-1.5.2-1.7.3v-2.5c.6-.2 1.3-.3 2.1-.4.8-.1 1.6-.1 2.4-.1 1.3 0 2.3.3 3 1 .7.7 1.1 1.6 1.1 2.8 0 .8-.1 1.5-.4 2.2-.3.6-.7 1.3-1.4 2l-4.2 4.5h6.2z"/> -->
  <path class="st8" d="M174.7 368c1-.9 1.9-1.3 2.9-1.3s1.9.5 2.9 1.3l2.9 2.6 2.9 2.6 8.7 7.8 2.9 2.6 2.9 2.6 8.7 7.8 2.9 2.6 2.9 2.6 8.7 7.8 2.9 2.6 2.9 2.6 8.7 7.8c1 .9 1.9 1.3 2.9 1.3.9 0 1.7-.6 2.2-2 .5-1.3.8-2.9.8-4.6V389c0-1.7.3-3.2.8-4.6.5-1.3 1.2-2 2.2-2 1 0 1.9.5 2.9 1.3l2.9 2.6 2.9 2.6 2.9 2.6 2.9 2.6 2.9 2.6 2.9 2.6 2.9 2.6 2.9 2.6 2.9 2.6 2.9 2.6 2.9 2.6 2.9 2.6 2.9 2.6 2.9 2.6c1 .9 1.9 1.3 2.9 1.3s1.7-.6 2.2-2l1.4-3.9c.5-1.3 1.2-2 2.2-2 .9 0 1.9.5 2.9 1.3l2.9 2.6 2.9 2.6 2.9 2.6c1 .9 1.4 1.7 1.4 2.6h-29.1c0-.9-.5-1.3-1.4-1.3-.9 0-1.4.5-1.4 1.3H272c0-.9-.5-1.7-1.4-2.6l-2.9-2.6-8.7-7.8-2.9-2.6c-1-.8-1.9-1.3-2.9-1.3s-1.7.7-2.2 2c-.5 1.3-.7 2.9-.7 4.6V425h-18.9c0-.9-.5-1.7-1.4-2.6l-2.9-2.6-2.9-2.6-2.9-2.6-2.9-2.6-2.9-2.6-2.9-2.6-2.9-2.6-2.9-2.6-2.9-2.6-2.9-2.6-2.9-2.6-2.9-2.6-2.9-2.6-2.9-2.6-2.9-2.6-2.9-2.6-2.9-2.6c-1-.9-1.9-1.4-2.9-1.4s-1.9.5-2.9 1.4l-49.4 44.5c-1 .9-1.5 1.7-1.5 2.6h-18.8v-10.5c0-1.7-.3-3.2-.8-4.6-.5-1.3-1.2-2-2.2-2-.9 0-1.9.5-2.9 1.3l-2.9 2.6-2.9 2.6-2.9 2.6-2.9 2.6-2.9 2.6c-1 .9-1.4 1.7-1.4 2.6h-8.7c0-.9-.5-1.3-1.5-1.3-.9 0-1.4.5-1.4 1.3H42.6c0-.9.5-1.7 1.4-2.6l2.9-2.6 5.9-5.3c.9-.9 1.9-1.3 2.9-1.3s1.7.7 2.2 2l1.4 3.9c.5 1.4 1.3 2 2.2 2 1 0 1.9-.5 2.9-1.3l2.9-2.6 2.9-2.6 8.7-7.8 2.9-2.6 2.9-2.6 8.7-7.8 2.9-2.6 2.9-2.6 5.9-5.3c1-.8 1.9-1.3 2.9-1.3s1.7.7 2.2 2c.5 1.3.8 2.9.8 4.6v26.2c0 1.7.3 3.2.7 4.6.5 1.4 1.3 2 2.2 2 1 0 1.9-.5 2.9-1.3l2.9-2.6 2.9-2.6 2.9-2.6 2.9-2.6 2.9-2.6 2.9-2.6 2.9-2.6 2.9-2.6 2.9-2.6 2.9-2.6 2.9-2.6 2.9-2.6 2.9-2.6 2.9-2.6 2.9-2.6 2.9-2.6 2.9-2.6 2.9-2.6 2.9-2.6 2.8-2.8zM102 400.7c1 0 1.5-.5 1.5-1.3 0-.9-.5-1.3-1.5-1.3-.9 0-1.4.5-1.4 1.3 0 .9.5 1.3 1.4 1.3zm-5.8 5.3c.9 0 1.4-.5 1.4-1.3 0-.9-.5-1.4-1.4-1.4-1 0-1.5.5-1.5 1.4.1.9.5 1.3 1.5 1.3zm-17.4 13.1c-1 0-1.4.5-1.4 1.3 0 .9.5 1.3 1.4 1.3 1 0 1.4-.5 1.4-1.3 0-.9-.5-1.3-1.4-1.3zm5.8-5.2c-1 0-1.4.5-1.4 1.3 0 .9.5 1.3 1.4 1.3 1 0 1.4-.5 1.4-1.3 0-1-.4-1.3-1.4-1.3zm5.8-5.3c-1 0-1.4.5-1.4 1.3 0 .9.5 1.4 1.4 1.4.9 0 1.4-.5 1.4-1.4 0-.9-.5-1.3-1.4-1.3zm186.1 10.5c-.9 0-1.4.5-1.4 1.3 0 .9.5 1.3 1.4 1.3 1 0 1.5-.5 1.5-1.3 0-.9-.5-1.3-1.5-1.3zm-5.7-5.2c-1 0-1.5.5-1.5 1.3 0 .9.5 1.3 1.5 1.3.9 0 1.4-.5 1.4-1.3 0-1-.5-1.3-1.4-1.3zm-5.9-5.3c-1 0-1.4.5-1.4 1.3 0 .9.5 1.4 1.4 1.4 1 0 1.4-.5 1.4-1.4 0-.9-.4-1.3-1.4-1.3zm-11.7-7.9c1 0 1.4-.5 1.4-1.3 0-.9-.5-1.3-1.4-1.3-1 0-1.4.5-1.4 1.3 0 .9.4 1.3 1.4 1.3zm5.9 5.3c1 0 1.4-.5 1.4-1.3 0-.9-.5-1.4-1.4-1.4-1 0-1.4.5-1.4 1.4-.1.9.4 1.3 1.4 1.3zM49.6 265.9l2.9-2.6 2.9-2.6 2.9-2.6 2.9-2.6 2.9-2.6 2.9-2.6 2.9-2.6 2.9-2.6c1-.9 1.7-2 2.2-3.2.5-1.3.5-2.6 0-3.9-.1-.2-.2-.5-.3-.7-.5-1.1-1.1-1.9-1.9-2.6l-2.9-2.6-8.7-7.8-2.9-2.6-2.9-2.6-8.7-7.8c-1-.9-1.9-1.3-2.9-1.3-.9 0-1.7.6-2.2 2-.5 1.3-.8 2.9-.8 4.6V263.2c0 1.7.3 3.2.8 4.6.5 1.3 1.2 2 2.2 2 1 0 1.9-.5 2.9-1.3l2.9-2.6zM72.9 49.7c1 0 1.5-.5 1.5-1.3h8.7c0 .9.5 1.7 1.4 2.6l2.9 2.6 2.9 2.6 2.9 2.6 2.9 2.6L99 64c1 .8 1.9 1.3 2.9 1.3s1.7-.7 2.2-2c.5-1.3.8-2.9.8-4.6V48.5h18.8c0 .9.5 1.7 1.5 2.6l49.4 44.5c1 .9 1.9 1.4 2.9 1.4s1.9-.5 2.9-1.4l2.9-2.6 2.9-2.6 2.9-2.6 2.9-2.6 2.9-2.6 2.9-2.6 2.9-2.6 2.9-2.6 2.9-2.6 2.9-2.6 2.9-2.6 2.9-2.6 2.9-2.6 2.9-2.6 2.9-2.6 2.9-2.6 2.9-2.6c1-.9 1.4-1.7 1.4-2.6H250v10.5c0 1.7.3 3.2.7 4.6.5 1.3 1.3 2 2.2 2 1 0 1.9-.5 2.9-1.3l2.9-2.6 8.7-7.8 2.9-2.6c.9-.9 1.4-1.7 1.4-2.6h8.7c0 .9.5 1.3 1.4 1.3.9 0 1.4-.5 1.4-1.3h29.1c0 .9-.5 1.7-1.4 2.6l-2.9 2.6-2.9 2.6-2.9 2.6c-1 .9-1.9 1.3-2.9 1.3s-1.7-.7-2.2-2l-1.4-3.9c-.5-1.4-1.3-2-2.2-2-1 0-1.9.5-2.9 1.3l-2.9 2.6-2.9 2.6-2.9 2.6-2.9 2.6-2.9 2.6-2.9 2.6-2.9 2.6-2.9 2.6-2.9 2.6-2.9 2.6-2.9 2.6-2.9 2.6-2.9 2.6-2.9 2.6c-1 .8-1.9 1.3-2.9 1.3-.9 0-1.7-.7-2.2-2-.5-1.3-.8-2.9-.8-4.6V58.9c0-1.7-.3-3.2-.8-4.6-.5-1.4-1.2-2-2.2-2-1 0-1.9.5-2.9 1.3l-8.7 7.8-2.9 2.6-2.9 2.6-8.7 7.8-2.9 2.6-2.9 2.6-8.7 7.8-2.9 2.6-2.9 2.6-8.7 7.8-2.9 2.6-2.9 2.6c-1 .9-1.9 1.3-2.9 1.3s-1.9-.5-2.9-1.3l-2.9-2.6-2.9-2.6-2.9-2.6-2.9-2.6-2.9-2.6L157 90l-2.9-2.6-2.9-2.6-2.9-2.6-2.9-2.6-2.9-2.6-2.9-2.6-2.9-2.6-2.9-2.6-2.9-2.6L128 64l-2.9-2.6-2.9-2.6-2.9-2.6-2.9-2.6c-.9-.9-1.9-1.3-2.9-1.3s-1.7.6-2.2 2c-.5 1.3-.7 2.9-.7 4.6v26.2c0 1.7-.3 3.2-.8 4.6-.5 1.3-1.3 2-2.2 2-.9 0-1.9-.5-2.9-1.3l-5.9-5.3-2.9-2.6-2.9-2.6-8.7-7.8-3.4-3.1-2.9-2.6-8.7-7.8-2.9-2.6-2.9-2.6c-1-.9-1.9-1.3-2.9-1.3s-1.7.6-2.2 2L57 58c-.5 1.3-1.3 2-2.2 2-1 0-1.9-.5-2.9-1.3L46 53.4l-2.9-2.6c-.9-.9-1.4-1.7-1.4-2.6h29.1c.7 1.2 1.2 1.5 2.1 1.5zM102 73.3c-.9 0-1.4.5-1.4 1.3 0 .9.5 1.3 1.4 1.3 1 0 1.5-.5 1.5-1.3s-.5-1.3-1.5-1.3zm-5.8-5.2c-1 0-1.5.5-1.5 1.3 0 .9.5 1.4 1.5 1.4.9 0 1.4-.5 1.4-1.4 0-.9-.4-1.3-1.4-1.3zm157 5.2c-1 0-1.4.5-1.4 1.3 0 .9.5 1.3 1.4 1.3 1 0 1.4-.5 1.4-1.3.1-.8-.4-1.3-1.4-1.3zm5.9-5.2c-1 0-1.4.5-1.4 1.3 0 .9.5 1.4 1.4 1.4 1 0 1.4-.5 1.4-1.4 0-.9-.5-1.3-1.4-1.3zM276.5 55c1 0 1.5-.5 1.5-1.3 0-.9-.5-1.3-1.5-1.3-.9 0-1.4.5-1.4 1.3-.1.9.4 1.3 1.4 1.3zm-5.7 5.2c.9 0 1.4-.5 1.4-1.3 0-.9-.5-1.3-1.4-1.3-1 0-1.5.5-1.5 1.3-.1.9.4 1.3 1.5 1.3zm-5.9 5.3c1 0 1.4-.5 1.4-1.3 0-.9-.5-1.4-1.4-1.4-1 0-1.4.5-1.4 1.4 0 .8.4 1.3 1.4 1.3zM90.4 62.9c-1 0-1.4.5-1.4 1.4 0 .8.5 1.3 1.4 1.3s1.4-.5 1.4-1.3c0-1-.5-1.4-1.4-1.4zm-5.8-5.2c-1 0-1.4.5-1.4 1.3 0 .9.5 1.3 1.4 1.3 1 0 1.4-.5 1.4-1.3 0-.9-.4-1.3-1.4-1.3zm-5.8-5.3c-1 0-1.4.5-1.4 1.3 0 .9.5 1.3 1.4 1.3 1 0 1.4-.5 1.4-1.3s-.5-1.3-1.4-1.3zM84.6 297.2l8.7-7.8 2.9-2.6 2.9-2.6 8.7-7.8c1-.9 1.4-1.7 1.4-2.6 0-.9-.5-1.7-1.4-2.6l-26.1-23.5c-1-.9-1.9-1.4-2.9-1.4s-1.7.7-2.2 2c-.5 1.3-.7 2.9-.7 4.6v41.9c0 1.7.3 3.2.7 4.6.5 1.3 1.3 2 2.2 2 1 0 1.9-.5 2.9-1.3l2.9-2.9zM76.5 231.2c.5 1.3 1.3 2 2.2 2 1 0 1.9-.5 2.9-1.3l2.9-2.6 2.9-2.6 2.9-2.6 8.7-7.8 2.9-2.6 2.9-2.6 2.9-2.6c1-.9 1.4-1.7 1.4-2.6 0-.9-.5-1.7-1.4-2.6l-2.9-2.6-2.9-2.6-2.9-2.6-2.9-2.6-2.9-2.6-2.9-2.6-2.9-2.6-2.9-2.6-2.9-2.6c-1-.9-1.9-1.3-2.9-1.3s-1.7.7-2.2 2c-.5 1.3-.7 2.9-.7 4.6v41.9c0 1.2.3 2.7.7 4.1zM157.3 179.4l8.7-7.8 2.9-2.6 2.9-2.6 2.9-2.6c1-.9 2.2-1.5 3.6-2 1.5-.5 2.9-.5 4.4 0 1.4.5 2.7 1.1 3.6 2l8.7 7.8 2.9 2.6 2.9 2.6 8.7 7.8 2.9 2.6 2.9 2.6 8.7 7.8 2.9 2.6 2.9 2.6 8.7 7.8 2.9 2.6 2.9 2.6 8.7 7.8 2.9 2.6 2.9 2.6 5.9 5.3c.8.7 1.4 1.6 1.9 2.6.1.2.2.5.3.7.5 1.3.5 2.6 0 3.9-.5 1.3-1.3 2.4-2.2 3.2l-78.6 70.8c-1 .9-2.2 1.5-3.6 2s-2.9.5-4.4 0c-1.4-.5-2.7-1.1-3.6-2l-2.9-2.6-2.9-2.6-2.9-2.6-2.9-2.6-2.9-2.6-2.9-2.6-2.9-2.6-2.9-2.6-2.9-2.6-2.9-2.6-2.9-2.6-2.9-2.6-2.9-2.6-2.9-2.6-2.9-2.6-2.9-2.6-2.9-2.6-2.9-2.6-2.9-2.6-2.9-2.6-2.9-2.6-2.9-2.6-2.9-2.6-2.9-2.6-2.9-2.6-2.9-2.6-2.9-2.6c-1-.9-1.7-2-2.2-3.2-.5-1.3-.5-2.6 0-3.9.1-.2.2-.5.3-.7.5-1.1 1.1-1.9 1.9-2.6l2.9-2.6 8.7-7.8 2.9-2.6 2.9-2.6 8.7-7.8 2.9-2.6 2.9-2.6 8.7-7.8 2.9-2.6 2.9-2.6 8.7-7.8 2.9-2.6 3.1-3.3zm14.5-2.6-8.7 7.8-2.9 2.6-2.9 2.6-8.7 7.8-2.9 2.6-2.9 2.6-8.7 7.8-2.9 2.6-2.9 2.6-8.7 7.8-2.9 2.6-2.9 2.6-5.9 5.3c-.8.7-1.4 1.6-1.9 2.6-.1.2-.2.5-.3.7-.5 1.3-.5 2.6 0 3.9.5 1.3 1.3 2.4 2.2 3.2l66.9 60.2c1 .9 2.2 1.5 3.6 2 1.5.5 2.9.5 4.4 0s2.7-1.1 3.6-2l2.9-2.6 2.9-2.6 2.9-2.6 2.9-2.6 2.9-2.6 2.9-2.6 2.9-2.6 2.9-2.6 2.9-2.6 2.9-2.6 2.9-2.6 2.9-2.6 2.9-2.6 2.9-2.6 2.9-2.6 2.9-2.6 2.9-2.6 2.9-2.6 2.9-2.6 2.9-2.6 2.9-2.6 2.9-2.6 2.9-2.6c1-.9 1.7-2 2.2-3.2.5-1.3.5-2.6 0-3.9-.1-.2-.2-.5-.3-.7-.5-1.1-1.1-1.9-1.9-2.6l-2.9-2.6-2.9-2.6-2.9-2.6-2.9-2.6-2.9-2.6-2.9-2.6-2.9-2.6-2.9-2.6-2.9-2.6-2.9-2.6-2.9-2.6-2.9-2.6-2.9-2.6-2.9-2.6-2.9-2.6-2.9-2.6-2.9-2.6-2.9-2.6-2.9-2.6-2.9-2.6-2.9-2.6-2.9-2.6-2.9-2.6c-1-.8-2.2-1.5-3.6-2s-2.9-.5-4.4 0c-1.4.5-2.7 1.1-3.6 2l-3 2.1zM119.5 328.7l8.7-7.8 2.9-2.6 2.9-2.6 8.7-7.8c1-.9 1.4-1.7 1.4-2.6 0-.8-.5-1.7-1.4-2.6l-26.2-23.6c-.9-.8-1.9-1.3-2.9-1.3s-1.7.7-2.2 2c-.5 1.3-.7 2.9-.7 4.6V326c0 1.7.3 3.2.7 4.6.5 1.3 1.3 2 2.2 2 1 0 1.9-.5 2.9-1.4l3-2.5zM111.4 199.7c.5 1.3 1.3 2 2.2 2 1 0 1.9-.5 2.9-1.4l2.9-2.6 8.7-7.8 2.9-2.6 2.9-2.6 8.7-7.8c1-.9 1.4-1.7 1.4-2.6 0-.8-.5-1.7-1.4-2.6l-26.2-23.6c-.9-.8-1.9-1.3-2.9-1.3s-1.7.7-2.2 2c-.5 1.3-.7 2.9-.7 4.6V195c.2 1.9.4 3.4.8 4.7z"/>
  <path class="st8" d="M174.7 184.7c1-.9 2.2-1.5 3.6-2 1.5-.5 2.9-.5 4.4 0 1.4.5 2.7 1.1 3.6 2l55.3 49.8c.8.7 1.4 1.6 1.8 2.6.1.2.2.5.3.7.5 1.3.5 2.6 0 3.9-.5 1.3-1.2 2.4-2.2 3.2l-5.9 5.3-2.9 2.6-2.9 2.6-8.7 7.8-2.9 2.6-2.9 2.6-8.7 7.8-2.9 2.6-2.9 2.6-8.7 7.8-2.9 2.6-2.9 2.6c-1 .9-2.2 1.5-3.6 2s-2.9.5-4.4 0c-1.4-.5-2.7-1.1-3.6-2l-2.9-2.6-2.9-2.6-2.9-2.6-2.9-2.6-2.9-2.6-2.9-2.6-2.9-2.6-2.9-2.6-2.9-2.6-2.9-2.6-2.9-2.6-2.9-2.6-2.9-2.6-2.9-2.6-2.9-2.6-2.9-2.6-2.9-2.6-2.9-2.6-2.9-2.6c-1-.9-1.7-2-2.2-3.2-.5-1.3-.5-2.6 0-3.9.1-.2.2-.5.3-.7.5-1.1 1.1-1.9 1.9-2.6l2.9-2.6 2.9-2.6 2.9-2.6 2.9-2.6 2.9-2.6 2.9-2.6 2.9-2.6 2.9-2.6 2.9-2.6 2.9-2.6 2.9-2.6 2.9-2.6 2.9-2.6 2.9-2.6 2.9-2.6 2.9-2.6 2.9-2.6 2.9-2.6 2.9-3.1zm3.7 8.5c-1.4.5-2.7 1.1-3.6 2l-43.6 39.3c-.8.7-1.4 1.6-1.8 2.6-.1.2-.2.5-.3.7-.5 1.3-.5 2.6 0 3.9.5 1.3 1.2 2.4 2.2 3.2l5.9 5.3 2.9 2.6 2.9 2.6 8.7 7.8 2.9 2.6 2.9 2.6 8.7 7.8 2.9 2.6 2.9 2.6 2.9 2.6c1 .9 2.2 1.5 3.6 2 1.5.5 2.9.5 4.4 0 1.4-.5 2.7-1.1 3.6-2l8.7-7.8 2.9-2.6 2.9-2.6 8.7-7.8 2.9-2.6 2.9-2.6 8.7-7.8 2.9-2.6 2.9-2.6c1-.9 1.7-2 2.2-3.2.5-1.3.5-2.6 0-3.9-.1-.2-.2-.5-.3-.7-.5-1.1-1.1-1.9-1.9-2.6l-2.9-2.6-2.9-2.6-2.9-2.6-2.9-2.6-2.9-2.6-2.9-2.6-2.9-2.6-2.9-2.6-2.9-2.6-2.9-2.6-2.9-2.6-2.9-2.6-2.9-2.6-2.9-2.6-2.9-2.6c-1-.9-2.2-1.5-3.6-2-1.6-.8-3.1-.8-4.5-.4zM180.5 389c-1-.9-1.9-1.3-2.9-1.3s-1.9.5-2.9 1.3l-2.9 2.6-2.9 2.6-2.9 2.6-2.9 2.6-2.9 2.6-2.9 2.6-2.9 2.6-2.9 2.6-2.9 2.6-2.9 2.6-2.9 2.6-2.9 2.6-2.9 2.6c-1 .9-1.4 1.7-1.4 2.6h11.6c0-.9.5-1.7 1.4-2.6l2.9-2.6 2.9-2.6 2.9-2.6 8.7-7.8 2.9-2.6 2.9-2.6 2.9-2.6c1-.9 1.9-1.3 2.9-1.3s1.9.5 2.9 1.3l2.9 2.6 2.9 2.6 2.9 2.6 2.9 2.6 2.9 2.6 2.9 2.6 2.9 2.6 2.9 2.6 2.9 2.6c1 .9 1.4 1.7 1.4 2.6h11.6c0-.9-.5-1.7-1.5-2.6L180.5 389zM139.8 53.7l2.9 2.6 2.9 2.6 2.9 2.6 2.9 2.6 2.9 2.6 2.9 2.6 2.9 2.6 2.9 2.6 2.9 2.6 2.9 2.6 2.9 2.6 2.9 2.6c1 .9 1.9 1.3 2.9 1.3s1.9-.5 2.9-1.3l37.8-34c1-.9 1.5-1.7 1.5-2.6h-11.6c0 .9-.5 1.7-1.4 2.6l-2.9 2.6-2.9 2.6-2.9 2.6-2.9 2.6-2.9 2.6-2.9 2.6-2.9 2.6-2.9 2.6-2.9 2.6c-1 .9-1.9 1.3-2.9 1.3s-1.9-.5-2.9-1.3l-2.9-2.6-2.9-2.6-2.9-2.6-8.7-7.8-2.9-2.6-2.9-2.6-2.9-2.6c-1-.9-1.4-1.7-1.4-2.6h-11.6c0 .9.5 1.7 1.4 2.6l2.7 2.8z"/>
  <path class="st8" d="M178.4 203.6c1.5-.5 2.9-.5 4.4 0 1.4.5 2.7 1.1 3.6 2l2.9 2.6 2.9 2.6 8.7 7.8 2.9 2.6 2.9 2.6 8.7 7.8 2.9 2.6c.8.7 1.4 1.6 1.9 2.6.1.2.2.5.3.7.5 1.3.5 2.6 0 3.9-.5 1.3-1.2 2.4-2.2 3.2l-2.9 2.6-2.9 2.6-2.9 2.6-2.9 2.6-2.9 2.6-2.9 2.6-2.9 2.6-2.9 2.6-2.9 2.6-2.9 2.6-2.9 2.6c-1 .8-2.2 1.5-3.6 2s-2.9.5-4.4 0c-1.4-.5-2.7-1.1-3.6-2l-2.9-2.6-8.7-7.8-2.9-2.6-2.9-2.6-8.7-7.8-2.9-2.6-2.9-2.6c-1-.9-1.7-2-2.2-3.2-.5-1.3-.5-2.6 0-3.9.1-.2.2-.5.3-.7.5-1.1 1.1-1.9 1.9-2.6l2.9-2.6 2.9-2.6 2.9-2.6 2.9-2.6 2.9-2.6 2.9-2.6 2.9-2.6 2.9-2.6 2.9-2.6 2.9-2.6 2.9-2.6c.9-.8 2.1-1.5 3.6-2zm0 10.5c-1.4.5-2.7 1.1-3.6 2l-2.9 2.6-2.9 2.6-3 2.7-8.7 7.8-2.9 2.6c-.8.7-1.4 1.6-1.9 2.6-.1.2-.2.5-.3.7-.5 1.3-.5 2.6 0 3.9.5 1.3 1.2 2.4 2.2 3.2l2.9 2.6 2.9 2.6 2.9 2.6 2.9 2.6 2.9 2.6 2.9 2.6 2.9 2.6c1 .9 2.2 1.5 3.6 2 1.5.5 2.9.5 4.4 0 1.4-.5 2.7-1.1 3.6-2l20.4-18.3c1-.9 1.7-2 2.2-3.2.5-1.3.5-2.6 0-3.9-.1-.2-.2-.5-.3-.7-.5-1.1-1.1-1.9-1.9-2.6l-5.9-5.3-2.9-2.6-2.9-2.6-8.7-7.8c-1-.9-2.2-1.5-3.6-2-1.4-.3-2.9-.3-4.3.1zM214.7 311c-.5-1.3-1.2-2-2.2-2-1 0-1.9.5-2.9 1.3l-2.9 2.6-2.9 2.6-2.9 2.6-2.9 2.6-2.9 2.6-2.9 2.6-2.9 2.6-2.9 2.6c-1 .9-2.2 1.5-3.6 2s-2.9.5-4.4 0c-1.4-.5-2.7-1.1-3.6-2l-23.3-21c-1-.9-1.9-1.3-2.9-1.3s-1.7.7-2.2 2c-.5 1.3-.8 2.9-.8 4.6v41.9c0 1.7.3 3.2.8 4.6.5 1.3 1.3 2 2.2 2 1 0 1.9-.5 2.9-1.3l2.9-2.6 2.9-2.6 2.9-2.6 2.9-2.6 2.9-2.6 2.9-2.6 2.9-2.6 2.9-2.6c1-.9 2.2-1.5 3.6-2 1.5-.5 2.9-.5 4.4 0 1.4.5 2.7 1.1 3.6 2l23.3 21c1 .9 1.9 1.3 2.9 1.3.9 0 1.7-.6 2.2-2 .5-1.4.8-2.9.8-4.6v-41.9c0-1.7-.3-3.3-.8-4.6zM174.7 137.5l-2.9-2.6-2.9-2.6-2.9-2.6-3-2.7-2.9-2.6-2.9-2.6-2.9-2.6-2.9-2.6c-1-.9-1.9-1.4-2.9-1.4s-1.7.7-2.2 2c-.5 1.3-.8 2.9-.8 4.6v41.9c0 1.7.3 3.2.8 4.6.5 1.3 1.3 2 2.2 2 1 0 1.9-.5 2.9-1.3l5.9-5.3 2.9-2.6 2.9-2.6 8.7-7.8 2.9-2.6c1-.8 2.2-1.5 3.6-2 1.5-.5 2.9-.5 4.4 0s2.7 1.1 3.6 2l2.9 2.6 2.9 2.6 2.9 2.6 2.9 2.6 2.9 2.6 2.9 2.6 2.9 2.6 2.9 2.6c1 .8 1.9 1.3 2.9 1.3.9 0 1.7-.7 2.2-2 .5-1.3.8-2.9.8-4.6v-41.9c0-1.7-.3-3.2-.8-4.6-.5-1.3-1.2-2-2.2-2-1 0-1.9.5-2.9 1.4l-2.9 2.6-2.9 2.6-2.9 2.6-8.7 7.8-2.9 2.6-2.9 2.6c-1 .9-2.2 1.5-3.6 2s-2.9.5-4.4 0c-1.4-.3-2.6-.9-3.6-1.8z"/>
  <path class="st8" d="M178.4 219.4c1.5-.5 2.9-.5 4.4 0 1.4.5 2.7 1.1 3.6 2l2.9 2.6 2.9 2.6 2.9 2.6 2.9 2.6 2.9 2.6c.8.7 1.4 1.6 1.9 2.6.1.2.2.5.3.7.5 1.3.5 2.6 0 3.9-.5 1.3-1.3 2.4-2.2 3.2l-2.9 2.6-2.9 2.6-8.7 7.8c-1 .9-2.2 1.5-3.6 2s-2.9.5-4.4 0c-1.4-.5-2.7-1.1-3.6-2l-2.9-2.6-2.9-2.6-2.9-2.6-5.9-5.3c-.9-.9-1.7-2-2.2-3.2-.5-1.3-.5-2.6 0-3.9.1-.2.2-.5.3-.7.5-1.1 1.1-1.9 1.8-2.6l14.6-13.1c1-.8 2.2-1.4 3.7-1.8zm0 10.4c-1.4.5-2.7 1.1-3.6 2l-2.9 2.6c-.8.7-1.4 1.6-1.9 2.6-.1.2-.2.5-.3.7-.5 1.3-.5 2.6 0 3.9.5 1.3 1.3 2.4 2.2 3.2l2.9 2.6c1 .8 2.2 1.5 3.6 2 1.5.5 2.9.5 4.4 0 1.4-.5 2.7-1.1 3.6-2l2.9-2.6c1-.9 1.7-2 2.2-3.2.5-1.3.5-2.6 0-3.9-.1-.2-.2-.5-.3-.7-.5-1.1-1.1-1.9-1.9-2.6l-2.9-2.6c-1-.9-2.2-1.5-3.6-2-1.5-.4-3-.4-4.4 0zM174 419.7c.5-1.3.5-2.6 0-3.9-.5-1.3-1.3-2-2.2-2-1 0-1.9.5-2.9 1.3l-2.9 2.6c-1 .8-1.4 1.7-1.4 2.6s.8 1.5 2.2 2 2.9.5 4.4 0c1.4-.4 2.3-1.3 2.8-2.6zM166.7 51.7c-1.4.5-2.2 1.1-2.2 2 0 .9.5 1.7 1.4 2.6l2.9 2.6c.9.9 1.9 1.3 2.9 1.3s1.7-.7 2.2-2c.5-1.3.5-2.6 0-3.9-.5-1.4-1.4-2.2-2.9-2.6-1.3-.4-2.9-.4-4.3 0z"/>
  <path class="st8" d="M175.8 237c-.1.2-.3.5-.3.7-.5 1.3-.5 2.6 0 3.9.5 1.3 1.4 2.2 2.9 2.6 1.5.5 2.9.5 4.4 0 1.4-.5 2.4-1.4 2.9-2.6.5-1.3.5-2.6 0-3.9-.1-.2-.2-.5-.3-.7-.5-1-1.4-1.6-2.6-2-1.4-.5-2.9-.5-4.4 0-1.2.5-2.1 1.1-2.6 2zM188.6 422.4c1.4-.5 2.2-1.1 2.2-2 0-.9-.5-1.7-1.5-2.6l-2.9-2.6c-1-.9-1.9-1.3-2.9-1.3s-1.7.7-2.2 2c-.5 1.3-.5 2.6 0 3.9.5 1.4 1.4 2.2 2.9 2.6 1.5.4 2.9.4 4.4 0zM181.3 54.3c-.5 1.3-.5 2.6 0 3.9.5 1.3 1.2 2 2.2 2 .9 0 1.9-.5 2.9-1.3l2.9-2.6c1-.8 1.5-1.7 1.5-2.6 0-.9-.8-1.5-2.2-2-1.4-.5-2.9-.5-4.4 0-1.5.4-2.5 1.4-2.9 2.6zM249.6 279.6c-.5-1.3-1.2-2-2.2-2-.9 0-1.9.5-2.9 1.3l-2.9 2.6-2.9 2.6-2.9 2.6-2.9 2.6-2.9 2.6-2.9 2.6-2.9 2.6-2.9 2.6-2.9 2.6c-.9.9-1.4 1.7-1.4 2.6 0 .9.5 1.7 1.4 2.6l2.9 2.6 2.9 2.6 2.9 2.6 2.9 2.6 2.9 2.6 2.9 2.6 2.9 2.6 2.9 2.6 2.9 2.6c1 .9 1.9 1.4 2.9 1.4s1.7-.7 2.2-2c.5-1.3.8-2.9.8-4.6v-41.9c-.1-1.4-.3-2.9-.8-4.2zM241.6 150.6l-2.9 2.6-2.9 2.6-2.9 2.6-2.9 2.6-2.9 2.6-2.9 2.6-2.9 2.6-2.9 2.6c-.9.9-1.4 1.7-1.4 2.6s.5 1.7 1.4 2.6l2.9 2.6 2.9 2.6 2.9 2.6 2.9 2.6 2.9 2.6 2.9 2.6 2.9 2.6 2.9 2.6 2.9 2.6c1 .9 1.9 1.4 2.9 1.4s1.7-.7 2.2-2c.5-1.3.8-2.9.8-4.6v-41.9c0-1.7-.3-3.2-.8-4.6-.5-1.3-1.2-2-2.2-2-.9 0-1.9.5-2.9 1.3l-2.9 3zM284.5 248.1c-.5-1.3-1.3-2-2.2-2-.9 0-1.9.5-2.9 1.4l-2.9 2.6-2.9 2.6-2.9 2.6-2.9 2.6-2.9 2.6-2.9 2.6-2.9 2.6-2.9 2.6-2.9 2.6c-1 .9-1.4 1.7-1.4 2.6 0 .8.5 1.7 1.4 2.6l2.9 2.6 2.9 2.6 8.7 7.8 2.9 2.6 2.9 2.6 5.9 5.3c1 .8 1.9 1.3 2.9 1.3s1.7-.7 2.2-2c.5-1.3.8-2.9.8-4.6V253c-.2-2-.4-3.5-.9-4.9zM253.2 203c-1 .9-1.4 1.7-1.4 2.6s.5 1.7 1.4 2.6l2.9 2.6 2.9 2.6 2.9 2.6 2.9 2.6 2.9 2.6 2.9 2.6 2.9 2.6 2.9 2.6 2.9 2.6c1 .9 1.9 1.3 2.9 1.3s1.7-.6 2.2-2c.5-1.4.8-2.9.8-4.6v-41.9c0-1.7-.3-3.2-.8-4.6-.5-1.3-1.3-2-2.2-2-.9 0-1.9.5-2.9 1.3L253.2 203zM311.4 213.4l-2.9 2.6-2.9 2.6-2.9 2.6-2.9 2.6-2.9 2.6-2.9 2.6-2.9 2.6-2.9 2.6c-.8.7-1.4 1.6-1.9 2.6-.1.2-.2.5-.3.7-.5 1.3-.5 2.6 0 3.9.5 1.3 1.3 2.4 2.2 3.2l2.9 2.6 2.9 2.6 8.7 7.8 2.9 2.6 2.9 2.6 5.9 5.3c.9.9 1.9 1.3 2.9 1.3s1.7-.7 2.2-2c.5-1.3.7-2.9.7-4.6v-47.2c0-1.7-.3-3.2-.7-4.6-.5-1.4-1.3-2-2.2-2-1 0-1.9.5-2.9 1.3l-3 3.1z"/>
  <linearGradient id="SVGID_00000003814323837544953890000011398380665692752569_" gradientUnits="userSpaceOnUse" x1="135.369" y1="498.997" x2="225.353" y2="457.619" gradientTransform="matrix(1 0 0 -1 0 642)">
    <stop offset="0" style="stop-color:#fdeb76"/>
    <stop offset=".278" style="stop-color:#f37b4f"/>
    <stop offset=".677" style="stop-color:#f1628b"/>
    <stop offset="1" style="stop-color:#b876af"/>
  </linearGradient>
  <path style="fill:url(#SVGID_00000003814323837544953890000011398380665692752569_)" d="M236 188.8h-50.1v-19c0-3.6 3.9-6 7.1-4.1l17.9 12.6 17.9-12.6c3.2-1.8 7.1.5 7.1 4.1l.1 19z"/>
  <linearGradient id="SVGID_00000025419447762035447260000009156345236583591589_" gradientUnits="userSpaceOnUse" x1="127.546" y1="481.984" x2="217.529" y2="440.605" gradientTransform="matrix(1 0 0 -1 0 642)">
    <stop offset="0" style="stop-color:#fdeb76"/>
    <stop offset=".278" style="stop-color:#f37b4f"/>
    <stop offset=".677" style="stop-color:#f1628b"/>
    <stop offset="1" style="stop-color:#b876af"/>
  </linearGradient>
  <path style="fill:url(#SVGID_00000025419447762035447260000009156345236583591589_)" d="m166.9 185.5 8.4-8.4c-1-1.5-2.2-2.9-3.4-4.1l-8.1 8.1c1.2 1.2 2.3 2.8 3.1 4.4z"/>
  <linearGradient id="SVGID_00000070814601465105597100000008470808023907971456_" gradientUnits="userSpaceOnUse" x1="119.566" y1="464.625" x2="209.55" y2="423.247" gradientTransform="matrix(1 0 0 -1 0 642)">
    <stop offset="0" style="stop-color:#fdeb76"/>
    <stop offset=".278" style="stop-color:#f37b4f"/>
    <stop offset=".677" style="stop-color:#f1628b"/>
    <stop offset="1" style="stop-color:#b876af"/>
  </linearGradient>
  <path style="fill:url(#SVGID_00000070814601465105597100000008470808023907971456_)" d="M178.5 201.3c.8-2.5 1.3-5 1.4-7.7h-26.5v15h-.9c-9.1 0-16.4-7.6-16-16.8.4-8.1 6.8-14.7 15-15.3 3.1-.2 6 .5 8.5 1.8l8.3-8.3c-4.5-3.2-10-5-15.9-5-15.2.1-27.5 12.6-27.4 27.8.2 15 12.4 27.2 27.5 27.2 1.9 0 3.7-.2 5.4-.5 9.8-1.7 17.7-8.9 20.6-18.2z"/>
  <linearGradient id="SVGID_00000039129216914171406640000002002706746742977212_" gradientUnits="userSpaceOnUse" x1="126.939" y1="480.666" x2="216.922" y2="439.287" gradientTransform="matrix(1 0 0 -1 0 642)">
    <stop offset="0" style="stop-color:#fdeb76"/>
    <stop offset=".278" style="stop-color:#f37b4f"/>
    <stop offset=".677" style="stop-color:#f1628b"/>
    <stop offset="1" style="stop-color:#b876af"/>
  </linearGradient>
  <path style="fill:url(#SVGID_00000039129216914171406640000002002706746742977212_)" d="M236 193.5h-50.1v13H236v-13z"/>
  <path class="st1" d="M188.5 220h-2.3l3.3-8.9h2.3l3.2 8.9h-2.3l-.5-1.5H189l-.5 1.5zm2.1-6.7c-.1.3-.2.5-.2.8-.1.3-.2.8-.5 1.5l-.4 1.2h2.2l-.4-1.2c-.1-.3-.2-.8-.4-1.2-.1-.4-.2-.8-.3-1.1zM198.6 214.7h-.8V213h.8c0-.9.2-1.5.7-1.9.5-.4 1.1-.6 2-.6.2 0 .4 0 .7.1.2 0 .5.1.7.1v1.6c-.1 0-.3-.1-.5-.1h-.5c-.5 0-.8.1-.9.1-.1.1-.2.3-.2.5v.2h1.8v1.8h-1.8v5.3h-2.2v-5.4zM208.1 220H206v-7h2l.1.5c.4-.2.7-.4 1.1-.5.4-.1.7-.2 1-.2h.1v2c-.1 0-.2-.1-.3-.1h-.4c-.3 0-.5 0-.8.1-.2.1-.5.1-.7.2v5zM215.9 212.2h-2.2v-1.6h2.2v1.6zm-.1 7.8h-2.2v-7h2.2v7zM225 217.8v1.8c-.2.1-.6.3-1.1.4-.5.1-1.1.2-1.6.2-1.1 0-1.8-.3-2.2-.8-.4-.5-.6-1.5-.6-2.9 0-1.3.3-2.3.8-2.9.5-.5 1.5-.8 2.8-.8h.9c.2 0 .5.1.8.1v1.9c-.5-.1-.8-.1-1-.1h-.7c-.6 0-1.1.1-1.2.3-.2.2-.2.6-.2 1.5 0 .7.1 1.2.2 1.3.1.2.4.3.9.3.4 0 .8 0 1.2-.1.3 0 .7-.1 1-.2zM230.4 220.1c-.7 0-1.2-.2-1.6-.5-.4-.4-.5-.9-.5-1.7 0-.8.2-1.3.6-1.7.4-.4 1.1-.5 2.1-.5.2 0 .5 0 .7.1.2 0 .5.1.6.1v-.5c0-.2-.1-.4-.3-.5-.2-.1-.5-.2-.9-.2-.5 0-.9 0-1.2.1-.4 0-.7.1-1 .1v-1.8c.4-.1.8-.2 1.2-.2.5-.1 1-.1 1.6-.1.9 0 1.5.2 2 .6.5.4.7.9.7 1.7v4.9h-2l-.1-.6h-.1c-.3.2-.6.4-1 .5-.2.1-.5.2-.8.2zm.9-3c-.4 0-.6.1-.8.1-.1.1-.2.2-.2.5 0 .2.1.4.2.5.1.1.3.1.6.1.2 0 .4 0 .6-.1.2-.1.4-.1.6-.2v-.9c-.1 0-.2-.1-.4-.1-.2.1-.3.1-.6.1z"/>
  <circle cx="124" cy="382" r="6" style="fill:#42eb42"/>
  <path class="st1" d="M138.2 384.2v2.8H137v-8.8h3c1.2 0 2.1.2 2.7.7.5.4.8 1.2.8 2.2 0 1-.3 1.8-.8 2.3-.6.5-1.4.8-2.6.8h-1.9zm4.1-3.1c0-.6-.2-1.1-.5-1.4-.3-.3-.9-.4-1.7-.4h-1.8v3.8h1.8c.8 0 1.4-.2 1.7-.5.3-.3.5-.8.5-1.5zm3.7 5.9h-1.1v-9.3h1.1v3c.4-.2.8-.4 1.2-.5.4-.1.8-.2 1.2-.2.8 0 1.3.2 1.7.6.4.4.6.9.6 1.7v4.8h-1.1v-4.6c0-.5-.1-.8-.4-1-.2-.2-.6-.3-1.1-.3-.3 0-.7 0-1.1.1-.4.1-.7.2-1.1.4v5.3zm7 1.2c.4 0 .6-.1.8-.2.2-.1.4-.5.6-1.1l-2.8-6.8h1.3l2.1 5.7 2-5.7h1.2l-2.8 7.4c-.3.7-.5 1.1-.9 1.4-.3.3-.8.4-1.3.4h-.5c-.2 0-.3 0-.5-.1v-1c.1 0 .2 0 .3.1.2-.1.4-.1.5-.1zm8.7-7.2c-.6 0-1 .1-1.2.2-.2.1-.3.4-.3.9 0 .2.1.4.2.5.1.1.3.2.5.2l1.8.3c.6.1 1 .3 1.2.5.2.3.3.7.3 1.2 0 .8-.2 1.4-.6 1.8-.4.4-1 .5-1.9.5-.5 0-1 0-1.5-.1s-.8-.1-1.1-.2v-1.1c.3.1.7.2 1.1.2.4.1.9.1 1.3.1.6 0 1-.1 1.2-.3.2-.2.3-.5.3-.9 0-.3-.1-.5-.2-.6-.1-.1-.3-.2-.7-.3l-1.8-.3c-.4-.1-.8-.2-1-.5-.2-.3-.3-.7-.3-1.2 0-.7.2-1.3.6-1.6.4-.3 1.1-.5 2-.5h1c.3 0 .6.1 1 .1v1c-.2 0-.5-.1-.9-.1-.3.2-.7.2-1 .2zm4.9-2.1h-1.2v-1.2h1.2v1.2zm0 8.1h-1.1v-6.9h1.1v6.9zm6.7-1.4v1c-.2.1-.6.3-1.1.4-.5.1-.9.1-1.4.1-1 0-1.7-.3-2.1-.8-.4-.5-.6-1.5-.6-2.8 0-1.3.3-2.2.8-2.8.5-.6 1.4-.8 2.6-.8h.7c.2 0 .5 0 .9.1v1c-.3 0-.6-.1-.9-.1h-.7c-.9 0-1.5.2-1.8.5-.3.4-.5 1-.5 2s.1 1.6.4 2c.2.3.7.5 1.4.5.4 0 .8 0 1.2-.1.4.1.8-.1 1.1-.2zm2.8 1.5c-.7 0-1.2-.2-1.6-.5-.3-.3-.5-.9-.5-1.6 0-.7.2-1.3.6-1.6.4-.3 1.1-.5 2-.5h.9c.3 0 .6.1.9.1v-.7c0-.5-.1-.9-.4-1.1-.3-.2-.7-.3-1.3-.3-.4 0-.8 0-1.1.1-.3 0-.7.1-1 .2v-1c.4-.1.8-.2 1.1-.2.4 0 .8-.1 1.3-.1.8 0 1.4.2 1.8.6.4.4.6 1 .6 1.8v4.7h-1.1l-.1-.6c-.3.2-.6.4-1.1.5-.1.1-.5.2-1 .2zm.8-3.2c-.6 0-1.1.1-1.3.2-.2.1-.4.4-.4.8s.1.7.3.9c.2.2.5.3 1 .3.4 0 .7-.1 1.1-.2.4-.1.7-.3.9-.4V384c-.3 0-.6-.1-.9-.1h-.7zm5.7-6.2v9.3h-1.1v-9.3h1.1zm4.4 9.3h-1.3l3.5-8.8h1.2l3.4 8.8h-1.3l-.8-2.1h-4l-.7 2.1zm2.8-7.7c-.1.3-.2.7-.3 1-.1.4-.2.7-.4 1.1l-.9 2.4h3.2l-.9-2.4c-.2-.5-.3-.9-.4-1.2l-.3-.9zm8.9 6.6v1c-.1.1-.4.1-.6.2-.3 0-.5.1-.7.1-.8 0-1.4-.2-1.8-.6-.4-.4-.5-1-.5-1.9v-3.6h-1v-1h1l.2-1.7h1v1.7h2.5v1h-2.5v3.5c0 .6.1 1 .3 1.2.2.2.6.3 1.1.3h.6c0-.1.2-.1.4-.2zm5.1 0v1c-.1.1-.4.1-.6.2-.3 0-.5.1-.7.1-.8 0-1.4-.2-1.8-.6-.4-.4-.5-1-.5-1.9v-3.6h-1v-1h1.1l.2-1.7h1v1.7h2.5v1h-2.5v3.5c0 .6.1 1 .3 1.2.2.2.6.3 1.1.3h.6c0-.1.2-.1.3-.2zm6.3-.2v1c-.2.1-.6.2-1.1.3-.5.1-.9.1-1.4.1-1.1 0-1.9-.3-2.3-.8-.5-.6-.7-1.5-.7-2.8 0-1.2.2-2.1.7-2.7.5-.6 1.3-.9 2.3-.9 1 0 1.7.2 2.1.7.4.4.6 1.2.6 2.2v.5c0 .2 0 .4-.1.6h-4.6c0 .8.2 1.3.5 1.6.3.3.8.5 1.6.5.4 0 .8 0 1.3-.1.5 0 .8-.1 1.1-.2zm-.8-3c0-.6-.1-1.1-.4-1.3-.3-.3-.7-.4-1.3-.4-.7 0-1.2.1-1.5.4-.3.3-.4.8-.4 1.5h3.6v-.2zm3.7 4.3h-1.1v-6.9h1l.1.7c.4-.3.8-.5 1.2-.6.4-.1.9-.2 1.4-.2.8 0 1.3.2 1.7.6.4.4.6.9.6 1.7v4.8h-1.1v-4.6c0-.5-.1-.8-.4-1-.3-.2-.7-.3-1.2-.3-.3 0-.7.1-1 .2-.3.1-.7.3-1 .5v5.1zm11.2-9.3h1.1v9.3h-1l-.1-.6c-.3.3-.6.4-1 .6-.4.1-.8.2-1.3.2-.9 0-1.6-.3-2-.8-.4-.6-.6-1.5-.6-2.7 0-1.3.2-2.2.7-2.7.5-.6 1.3-.8 2.5-.8.3 0 .6 0 .9.1.3 0 .6.1.8.2v-2.8zm-1.6 3.3c-.9 0-1.5.2-1.8.5-.3.4-.4 1-.4 2 0 .9.1 1.6.4 2 .3.4.8.5 1.5.5.3 0 .7 0 1-.1.3-.1.6-.2.9-.4v-4.3c-.2-.1-.5-.2-.7-.2h-.9zm9.8 4.7v1c-.2.1-.6.2-1.1.3-.5.1-.9.1-1.4.1-1.1 0-1.9-.3-2.3-.8-.5-.6-.7-1.5-.7-2.8 0-1.2.2-2.1.7-2.7.5-.6 1.3-.9 2.3-.9 1 0 1.7.2 2.1.7.4.4.6 1.2.6 2.2v.5c0 .2 0 .4-.1.6H228c0 .8.2 1.3.5 1.6.3.3.8.5 1.6.5.4 0 .8 0 1.3-.1.4 0 .7-.1 1-.2zm-.8-3c0-.6-.1-1.1-.4-1.3-.3-.3-.7-.4-1.3-.4-.7 0-1.2.1-1.5.4-.3.3-.4.8-.4 1.5h3.6v-.2zm7.8 3v1c-.2.1-.6.2-1.1.3-.5.1-.9.1-1.4.1-1.1 0-1.9-.3-2.3-.8-.5-.6-.7-1.5-.7-2.8 0-1.2.2-2.1.7-2.7.5-.6 1.3-.9 2.3-.9 1 0 1.7.2 2.1.7.4.4.6 1.2.6 2.2v.5c0 .1 0 .4-.1.6H235c0 .8.2 1.3.5 1.6.3.3.8.5 1.6.5.4 0 .8 0 1.3-.1.3 0 .7-.1 1-.2zm-.8-3c0-.6-.1-1.1-.4-1.3-.3-.3-.7-.4-1.3-.4-.7 0-1.2.1-1.5.4-.3.3-.4.8-.4 1.5h3.6v-.2zm3.4-4.5-.3 2.2c0 .1-.1.3-.2.3-.1.1-.2.1-.3.1h-.3l.1-2.6h1z"/>
  <circle cx="85" cy="92" r="19.5" style="fill:none;stroke:#fff;stroke-opacity:.32"/>
  <path class="st15" d="M85.1 92.8h-.2c-1.8-.1-3.2-1.5-3.2-3.3 0-1.8 1.5-3.3 3.3-3.3 1.8 0 3.3 1.5 3.3 3.3 0 1.8-1.4 3.2-3.2 3.3zM91.7 99.4C90 101 87.6 102 85 102s-5-1-6.7-2.6c.1-.9.7-1.9 1.8-2.6 2.7-1.8 7.2-1.8 9.9 0 1 .7 1.6 1.6 1.7 2.6z"/>
  <path class="st15" d="M85 102c5.5 0 10-4.5 10-10s-4.5-10-10-10-10 4.5-10 10 4.5 10 10 10z"/>
  <path style="fill:none;stroke:#9b9394;stroke-width:4;stroke-dasharray:8,8" d="M350 426H11"/>
  <path class="st1" d="M92.4 307h-2.2v-9.4l-3 .4v-1.8l5.2-.6V307zm8.8-2v2H94v-2l4-4.3c.3-.4.6-.7.7-1 .1-.3.2-.6.2-1s-.1-.7-.3-.9c-.2-.2-.5-.3-1-.3s-1 0-1.7.1-1.1.2-1.3.2v-1.9c.5-.1 1-.2 1.6-.3s1.2-.1 1.8-.1c1 0 1.7.3 2.3.8.5.5.8 1.2.8 2.1 0 .6-.1 1.1-.3 1.6-.2.5-.5 1-1 1.5l-3.2 3.4h4.6zm3.5-4.9h-2v-2h2v2zm0 6.9h-2v-2h2v2zm7.9-8.6c0 .7-.2 1.3-.5 1.7-.3.4-.7.7-1.3.9.7.1 1.3.3 1.7.8.4.5.6 1.1.6 1.9 0 1.1-.3 1.9-1 2.5-.6.6-1.6.9-2.8.9-.7 0-1.3 0-1.9-.1-.6-.1-1-.1-1.3-.3v-1.9c.4.1.9.2 1.3.2s1 .1 1.5.1c.8 0 1.3-.1 1.6-.4.3-.3.5-.7.5-1.2s-.2-.9-.4-1.1c-.3-.2-.8-.4-1.4-.4h-1.9v-1.8h1.5c.6 0 1-.1 1.3-.4.3-.3.5-.6.5-1.1 0-.5-.1-.9-.4-1.1-.3-.2-.7-.3-1.2-.3-.4 0-.9 0-1.5.1s-1 .1-1.1.2V296c.4-.1.9-.2 1.5-.3.6-.1 1.2-.1 1.8-.1 1 0 1.7.2 2.2.7.5.5.7 1.2.7 2.1zm10.6 2.9c0 2.1-.3 3.7-1 4.5-.6.9-1.8 1.3-3.4 1.3-1 0-1.8-.1-2.4-.4-.6-.3-1-.7-1.3-1.2-.2-.4-.4-1-.5-1.7-.1-.7-.2-1.5-.2-2.6 0-2.1.3-3.6 1-4.5.6-.9 1.8-1.3 3.4-1.3 1 0 1.8.1 2.4.4.6.2 1 .6 1.3 1.2.2.4.4 1 .5 1.6.2.8.2 1.7.2 2.7zm-2.1 0c0-1.6-.1-2.6-.4-3.1-.3-.5-.9-.8-1.8-.8s-1.5.3-1.8.8c-.3.5-.4 1.5-.4 3.1 0 1.5.1 2.6.4 3.1.3.5.9.7 1.8.7s1.5-.3 1.8-.8c.2-.4.4-1.5.4-3zm6.1 2.3v3.4H125v-11.3h4c1.7 0 2.9.3 3.6.9.7.6 1.1 1.6 1.1 2.9 0 1.4-.4 2.4-1.1 3.1-.7.7-1.9 1-3.5 1h-1.9zm4.3-4.1c0-.7-.2-1.2-.6-1.4-.4-.3-1-.4-1.9-.4h-1.8v4h1.8c.9 0 1.5-.2 1.9-.5.4-.3.6-.9.6-1.7zm14.6-3.8V307h-2v-7.8l-2.6 5.6h-1.8l-2.6-5.6v7.8h-2v-11.3h2.7l2.9 6.4 2.9-6.4h2.5zm3.8 9.3-.5 3c0 .2-.1.4-.3.5-.2.1-.4.2-.6.2h-.7V305h2.1zm8.6-2.5-2.5-.6c-.8-.2-1.4-.5-1.7-.9-.3-.4-.5-1.1-.5-1.9 0-1.2.3-2.1 1-2.7.7-.6 1.7-.9 3.1-.9.6 0 1.1 0 1.6.1.5 0 .9.1 1.3.2v1.9c-.7-.1-1.2-.2-1.6-.3-.4 0-.8-.1-1.3-.1-.7 0-1.2.1-1.5.3-.3.2-.4.6-.4 1.1 0 .3.1.6.2.7.1.2.3.3.6.3l2.4.6c.6.1 1 .3 1.3.4.3.1.5.3.7.5.2.2.3.5.4.8.1.3.1.8.1 1.2 0 1.3-.3 2.2-1 2.7-.7.6-1.7.8-3.1.8-.7 0-1.4 0-2.1-.1-.7-.1-1.2-.2-1.6-.4v-2c.5.2 1.1.3 1.7.4.7.1 1.3.1 2 .1s1.2-.1 1.5-.3c.3-.2.4-.6.4-1.2 0-.4-.1-.6-.2-.8-.2.3-.4.2-.8.1zm6.7 4.7c-.9 0-1.6-.2-2-.7-.4-.5-.6-1.2-.6-2.1 0-1 .3-1.7.8-2.1.5-.4 1.4-.6 2.6-.6.3 0 .7 0 1.1.1.4 0 .7.1.9.1v-.8c0-.5-.1-.8-.4-1-.3-.2-.7-.3-1.4-.3-.6 0-1.1 0-1.5.1-.4 0-.8.1-1.2.2v-1.7c.5-.1.9-.2 1.5-.2.5-.1 1.2-.1 1.9-.1 1.1 0 1.9.3 2.4.8s.8 1.2.8 2.2v6.1h-1.9l-.1-.8c-.4.3-.8.5-1.3.7-.7 0-1.2.1-1.6.1zm1-4c-.6 0-1.1.1-1.3.2-.2.1-.4.4-.4.8s.1.7.3.9c.2.2.5.3 1 .3.3 0 .7 0 1.1-.1.4-.1.7-.2 1-.4v-1.5c-.3 0-.6-.1-.9-.1-.2-.1-.5-.1-.8-.1zm11.2 1.9v1.8c-.2.1-.5.2-.9.2-.4.1-.7.1-1 .1-1.1 0-2-.2-2.4-.7-.5-.5-.7-1.3-.7-2.5v-4.1h-1.2v-1.7h1.2l.3-2.1h1.7v2.1h2.8v1.7h-2.8v4c0 .5.1.9.3 1.1.2.2.6.3 1.2.3h.7c.4-.2.6-.2.8-.2zm4.1 2.1c-1 0-1.7-.2-2.2-.7-.5-.5-.7-1.3-.7-2.2v-6.1h2.1v5.8c0 .5.1.8.4 1 .2.2.6.3 1.2.3.3 0 .7 0 1-.1.3-.1.7-.2 1-.3v-6.7h2.1v8.9h-1.9l-.1-.6h-.1c-.5.3-1 .4-1.4.6-.6 0-1 .1-1.4.1zm8.8-.2h-2.1v-8.9h1.9l.1.7h.1c.4-.3.9-.5 1.4-.6.5-.1.9-.2 1.3-.2H193.3v2H192.4c-.4 0-.8 0-1.2.1-.4.1-.7.2-1 .3v6.6zm9.8-12h2.1v12h-1.8l-.1-.8h-.1c-.3.3-.7.6-1.2.8-.5.2-1 .2-1.6.2-1.2 0-2-.4-2.6-1.1-.5-.7-.8-1.9-.8-3.5s.3-2.8.9-3.5c.6-.7 1.7-1.1 3.1-1.1.4 0 .7 0 1.1.1.3 0 .7.1.9.2V295zm-1.7 4.8c-.9 0-1.5.2-1.8.6-.3.4-.4 1.1-.4 2.2 0 1 .1 1.8.4 2.1.3.4.8.6 1.6.6.4 0 .7 0 1.1-.1.3-.1.6-.2.9-.4v-4.6c-.3-.1-.5-.2-.8-.2s-.7-.2-1-.2zm7.8 7.4c-.9 0-1.6-.2-2-.7-.4-.5-.6-1.2-.6-2.1 0-1 .3-1.7.8-2.1.5-.4 1.4-.6 2.6-.6.3 0 .7 0 1.1.1.4 0 .7.1.9.1v-.8c0-.5-.1-.8-.4-1-.3-.2-.7-.3-1.4-.3-.6 0-1.1 0-1.5.1-.4 0-.8.1-1.2.2v-1.7c.5-.1.9-.2 1.5-.2.5-.1 1.2-.1 1.9-.1 1.1 0 1.9.3 2.4.8s.8 1.2.8 2.2v6.1h-1.9l-.1-.8c-.4.3-.8.5-1.3.7-.6 0-1.1.1-1.6.1zm1-4c-.6 0-1.1.1-1.3.2-.2.1-.4.4-.4.8s.1.7.3.9c.2.2.5.3 1 .3.3 0 .7 0 1.1-.1.4-.1.7-.2 1-.4v-1.5c-.3 0-.6-.1-.9-.1-.2-.1-.5-.1-.8-.1zm6.6 4.9c.4 0 .8-.1 1-.3.2-.2.4-.5.6-1l-3.5-8.7h2.3l2.2 6.7 2.1-6.7h2.2l-3.4 9.3c-.3.9-.8 1.6-1.2 1.9-.5.4-1.1.6-1.9.6h-.7c-.3 0-.5-.1-.7-.1V308h.3c.2.1.4.1.7.1zm8.9-3.1-.5 3c0 .2-.1.4-.3.5-.2.1-.4.2-.6.2h-.7V305h2.1zm7.4-2.3v-7h2.2v7.1c0 1.5-.3 2.6-1 3.3-.7.7-1.8 1-3.3 1-.4 0-.8 0-1.2-.1-.3 0-.6-.1-.9-.2v-2c.3.1.5.1.8.1h1c.9 0 1.6-.2 1.9-.5.3-.1.5-.8.5-1.7zm6.2 4.5c-.9 0-1.6-.2-2-.7-.4-.5-.6-1.2-.6-2.1 0-1 .3-1.7.8-2.1.5-.4 1.4-.6 2.6-.6.3 0 .7 0 1.1.1.4 0 .7.1.9.1v-.8c0-.5-.1-.8-.4-1-.3-.2-.7-.3-1.4-.3-.6 0-1.1 0-1.5.1-.4 0-.8.1-1.2.2v-1.7c.5-.1.9-.2 1.5-.2.5-.1 1.2-.1 1.9-.1 1.1 0 1.9.3 2.4.8s.8 1.2.8 2.2v6.1h-1.9l-.1-.8c-.4.3-.8.5-1.3.7-.6 0-1.1.1-1.6.1zm1-4c-.6 0-1.1.1-1.3.2-.2.1-.4.4-.4.8s.1.7.3.9c.2.2.5.3 1 .3.3 0 .7 0 1.1-.1.4-.1.7-.2 1-.4v-1.5c-.3 0-.6-.1-.9-.1-.2-.1-.5-.1-.8-.1zm7.9 3.8h-2.1v-8.9h1.8l.1.9h.1c.4-.4.9-.6 1.4-.8.5-.2 1.1-.3 1.7-.3 1 0 1.7.2 2.2.7.5.5.8 1.2.8 2.2v6.2H249v-5.9c0-.4-.1-.8-.4-1-.3-.2-.7-.3-1.2-.3-.4 0-.8.1-1.2.2-.4.1-.7.2-1 .4v6.6zm17.3-2v2h-7.1v-2l4-4.3c.3-.4.6-.7.7-1 .1-.3.2-.6.2-1s-.1-.7-.3-.9c-.2-.2-.5-.3-1-.3s-1 0-1.7.1-1.1.2-1.3.2v-1.9c.5-.1 1-.2 1.6-.3.6-.1 1.2-.1 1.8-.1 1 0 1.7.3 2.3.8.5.5.8 1.2.8 2.1 0 .6-.1 1.1-.3 1.6-.2.5-.5 1-1 1.5l-3.1 3.4h4.4zm5.1-9.5c1.5 0 2.6.4 3.2 1.2.6.8.9 2.2.9 4.3 0 2.1-.4 3.7-1.2 4.7-.8 1-2.1 1.5-3.9 1.5-.3 0-.6 0-1-.1-.4 0-.6-.1-.8-.1v-1.9c.2 0 .5 0 .8.1h1c1 0 1.7-.2 2.1-.6.4-.4.7-1.2.8-2.3-.5.2-.9.4-1.3.5-.4.1-.9.2-1.4.2-1.1 0-1.8-.3-2.4-.9-.5-.6-.8-1.5-.8-2.7 0-1.2.3-2.2 1-2.9.8-.6 1.7-1 3-1zm0 1.9c-.6 0-1.1.2-1.4.5-.3.3-.5.8-.5 1.4 0 .7.1 1.2.4 1.5.3.3.7.4 1.4.4.4 0 .7 0 1-.1.3-.1.6-.2 1-.4 0-1.3-.1-2.1-.4-2.6-.3-.4-.8-.7-1.5-.7z"/>
  <linearGradient id="SVGID_00000156553372390605153380000016537243966725393798_" gradientUnits="userSpaceOnUse" x1="98" y1="323.515" x2="262" y2="323.515" gradientTransform="matrix(1 0 0 -1 0 642)">
    <stop offset="0" style="stop-color:#f26474"/>
    <stop offset=".489" style="stop-color:#f46a49"/>
    <stop offset="1" style="stop-color:#fdcb97"/>
  </linearGradient>
  <path style="fill:url(#SVGID_00000156553372390605153380000016537243966725393798_)" d="M100 321h-1.2v-6.3h1.2v2.5h2.7v-2.5h1.2v6.3h-1.2v-2.6H100v2.6zm9.6-2.5c0 .9-.2 1.6-.5 2-.4.4-1 .6-1.8.6-.9 0-1.5-.2-1.8-.6-.4-.4-.5-1.1-.5-2 0-.9.2-1.6.5-2 .4-.4 1-.6 1.8-.6.9 0 1.5.2 1.8.6.3.4.5 1.1.5 2zm-3.6 0c0 .6.1 1 .2 1.2s.5.3 1 .3.8-.1 1-.3c.2-.2.2-.6.2-1.2s-.1-1-.2-1.2c-.1-.2-.5-.3-1-.3s-.8.1-1 .3c-.1.2-.2.6-.2 1.2zm7.5 1.4v1c-.1 0-.3.1-.5.1s-.4.1-.6.1c-.6 0-1.1-.1-1.4-.4-.3-.3-.4-.7-.4-1.4V317h-.6v-1h.7l.2-1.2h1v1.2h1.6v1h-1.6v2.2c0 .3.1.5.2.6.1.1.4.2.7.2h.4c.1 0 .2-.1.3-.1zm4.5-.1v.9c-.2.1-.4.2-.8.3-.4.1-.7.1-1.1.1-.8 0-1.4-.2-1.7-.6-.3-.4-.5-1.1-.5-2 0-.9.2-1.5.5-1.9.4-.4.9-.6 1.7-.6.8 0 1.3.2 1.6.5.3.3.5.9.5 1.6v.9h-3.1c0 .4.1.7.3.9.2.2.5.2.9.2.3 0 .6 0 .9-.1s.6-.1.8-.2zm-1.9-2.8c-.4 0-.7.1-.8.2-.2.2-.2.5-.2.9h2.1v-.2c0-.3-.1-.6-.2-.7-.2-.2-.5-.2-.9-.2zm4.1-2.6v6.6H119v-6.6h1.2zm5.2 4.1-1.4-.3c-.5-.1-.8-.3-1-.5-.2-.2-.3-.6-.3-1.1 0-.7.2-1.2.6-1.5.4-.3 1-.5 1.7-.5h.9c.3 0 .5.1.7.1v1.1c-.4-.1-.7-.1-.9-.1h-.7c-.4 0-.7.1-.8.2-.2.1-.2.3-.2.6 0 .2 0 .3.1.4.1.1.2.1.4.2l1.3.3c.3.1.5.1.7.2.2.1.3.2.4.3.1.1.2.3.2.5.1.2.1.4.1.7 0 .7-.2 1.2-.6 1.5-.4.3-1 .5-1.7.5-.4 0-.8 0-1.2-.1-.4-.1-.7-.1-.9-.2v-1.1c.3.1.6.2 1 .2s.7.1 1.1.1c.4 0 .7-.1.8-.2.2-.1.2-.3.2-.6 0-.2 0-.3-.1-.4-.1-.2-.2-.2-.4-.3zm4.1 2.6c-.6 0-1-.1-1.2-.4-.3-.3-.4-.7-.4-1.2v-3.4h1.2v3.2c0 .3.1.4.2.5.1.1.3.2.6.2.2 0 .4 0 .6-.1.2 0 .4-.1.5-.2V316h1.2v4.9h-1.1v-.3c-.3.1-.5.2-.8.3-.3.2-.6.2-.8.2zm4.9-.1h-1.2v-4.9h1l.1.5c.2-.2.5-.4.8-.5.3-.1.6-.1 1-.1.5 0 1 .1 1.2.4s.4.7.4 1.2v3.4h-1.2v-3.3c0-.2-.1-.4-.2-.5-.2-.1-.4-.2-.7-.2-.2 0-.4 0-.6.1-.2.1-.4.1-.6.2v3.7zm6.2-4c-.4 0-.6 0-.7.1-.1.1-.2.2-.2.4 0 .1 0 .2.1.3.1.1.1.1.3.1l1.2.2c.4.1.7.2.8.4.2.2.2.5.2.9 0 .6-.1 1-.4 1.3-.3.3-.8.4-1.4.4h-1.1c-.3 0-.6-.1-.8-.1v-1c.2.1.5.1.8.1h.9c.3 0 .6 0 .7-.1.1-.1.2-.2.2-.5 0-.1 0-.2-.1-.3-.1-.1-.2-.1-.3-.1l-1.2-.2c-.3 0-.6-.2-.8-.4-.2-.2-.2-.5-.2-.9 0-.5.2-.9.5-1.2.3-.3.8-.4 1.5-.4h.8c.2 0 .5 0 .7.1v1c-.2 0-.4 0-.6-.1h-.9zm3.8 4h-1.2v-6.6h1.2v2.1c.3-.2.6-.3.8-.4.3-.1.6-.1.8-.1.6 0 1 .1 1.2.4.3.3.4.7.4 1.2v3.4h-1.2v-3.3c0-.3-.1-.4-.2-.6-.1-.1-.3-.2-.6-.2-.2 0-.4 0-.6.1-.2 0-.4.1-.6.2v3.8zm5.5-5.6h-1.2v-1h1.2v1zm0 5.6h-1.2v-4.9h1.2v4.9zm2.2 0H151v-4.9h1v.5c.2-.2.5-.4.8-.5.3-.1.6-.1 1-.1.5 0 1 .1 1.2.4.3.3.4.7.4 1.2v3.4h-1.2v-3.3c0-.2-.1-.4-.2-.5-.2-.1-.4-.2-.7-.2-.2 0-.4 0-.6.1-.2.1-.4.1-.6.2v3.7zm8.3-1.2v.9c-.2.1-.4.2-.8.3-.4.1-.7.1-1.1.1-.8 0-1.4-.2-1.7-.6-.3-.4-.5-1.1-.5-2 0-.9.2-1.5.5-1.9.4-.4.9-.6 1.7-.6.8 0 1.3.2 1.6.5.3.3.5.9.5 1.6v.9h-3.1c0 .4.1.7.3.9.2.2.5.2.9.2.3 0 .6 0 .9-.1.3-.1.6-.1.8-.2zm-1.8-2.8c-.4 0-.7.1-.9.2-.2.2-.2.5-.2.9h2.1v-.2c0-.3-.1-.6-.2-.7-.2-.2-.5-.2-.8-.2zm7 1.5-1.4-.3c-.5-.1-.8-.3-1-.5-.2-.2-.3-.6-.3-1.1 0-.7.2-1.2.6-1.5.4-.3 1-.5 1.7-.5h.9c.3 0 .5.1.7.1v1.1c-.4-.1-.7-.1-.9-.1h-.7c-.4 0-.7.1-.9.2-.2.1-.2.3-.2.6 0 .2 0 .3.1.4.1.1.2.1.4.2l1.4.3c.3.1.5.1.7.2.2.1.3.2.4.3.1.1.2.3.2.5.1.2.1.4.1.7 0 .7-.2 1.2-.6 1.5-.4.3-1 .5-1.7.5-.4 0-.8 0-1.2-.1-.4-.1-.7-.1-.9-.2v-1.1c.3.1.6.2 1 .2s.7.1 1.1.1c.4 0 .7-.1.8-.2.2-.1.2-.3.2-.6 0-.2 0-.3-.1-.4-.1-.2-.2-.2-.4-.3zm3.6.5v2H168v-6.6h1.2v3.7h.4l1.5-2h1.4l-1.9 2.4 2 2.5h-1.4l-1.5-2h-.5zm4.5 2.6c.2 0 .4 0 .6-.1.1-.1.2-.3.3-.6l-1.9-4.9h1.3l1.2 3.7 1.2-3.7h1.2l-1.9 5.2c-.2.5-.4.9-.7 1.1-.3.2-.6.3-1.1.3h-.4c-.1 0-.3 0-.4-.1v-1h.2c.1.1.2.1.4.1zm7.6-5.5h1.3l-1.8 4.9h-1.3l-1.8-4.9h1.3l1.2 3.9 1.1-3.9zm3.1-.7h-1.2v-1h1.2v1zm0 5.6h-1.2v-4.9h1.2v4.9zm4.9-1.2v.9c-.2.1-.4.2-.8.3-.4.1-.7.1-1.1.1-.8 0-1.4-.2-1.7-.6-.3-.4-.5-1.1-.5-2 0-.9.2-1.5.5-1.9.4-.4.9-.6 1.7-.6.8 0 1.3.2 1.6.5.3.3.5.9.5 1.6v.9h-3.1c0 .4.1.7.3.9.2.2.5.2.9.2.3 0 .6 0 .9-.1.4-.1.6-.1.8-.2zm-1.8-2.8c-.4 0-.7.1-.9.2-.2.2-.2.5-.2.9h2.1v-.2c0-.3-.1-.6-.2-.7-.2-.2-.4-.2-.8-.2zm8.2-.9h1.3l-1.3 4.9h-1.4l-.9-3.3-.8 3.3h-1.3l-1.3-4.9h1.3l.8 3.9.9-3.9h1.1l1 3.9.6-3.9zm7.4 3.8v1.1h-3.9v-6.3h1.2v5.1h2.7zm5.2-1.4c0 .9-.2 1.6-.5 2-.4.4-1 .6-1.8.6-.9 0-1.5-.2-1.8-.6-.4-.4-.5-1.1-.5-2 0-.9.2-1.6.5-2 .4-.4 1-.6 1.8-.6.9 0 1.5.2 1.8.6.3.4.5 1.1.5 2zm-3.6 0c0 .6.1 1 .2 1.2.2.2.5.3 1 .3s.8-.1 1-.3c.2-.2.2-.6.2-1.2s-.1-1-.2-1.2c-.1-.2-.5-.3-1-.3s-.8.1-1 .3c-.1.2-.2.6-.2 1.2zm6.1 2.6c-.6 0-1-.1-1.2-.4-.3-.3-.4-.7-.4-1.2v-3.4h1.2v3.2c0 .3.1.4.2.5.1.1.3.2.6.2.2 0 .4 0 .6-.1.2 0 .4-.1.5-.2V316h1.2v4.9h-1.1v-.3c-.3.1-.5.2-.8.3-.4.2-.6.2-.8.2zm4.9-.1h-1.2v-4.9h1l.1.5c.2-.2.5-.4.8-.5.3-.1.6-.1 1-.1.5 0 1 .1 1.2.4s.4.7.4 1.2v3.4h-1.2v-3.3c0-.2-.1-.4-.2-.5-.2-.1-.4-.2-.7-.2-.2 0-.4 0-.6.1-.2.1-.4.1-.6.2v3.7zm6.5 1.6c-.3 0-.7 0-1-.1-.3 0-.6-.1-.7-.2v-1c.2.1.4.1.7.1.3 0 .6.1.9.1.4 0 .7-.1.9-.2.2-.2.3-.4.3-.8v-.3c-.2.1-.5.2-.8.3s-.5.1-.8.1c-.6 0-1.1-.2-1.4-.5-.3-.4-.4-1-.4-1.8s.2-1.5.6-1.8c.4-.4 1-.5 1.9-.5.3 0 .7 0 1.1.1.4 0 .7.1 1 .1v4c0 .9-.2 1.5-.5 1.9-.5.3-1 .5-1.8.5zm.1-5.6c-.5 0-.9.1-1 .2-.2.2-.2.5-.2 1.1 0 .5.1.8.2 1 .1.2.4.2.8.2.2 0 .4 0 .6-.1.2 0 .4-.1.6-.2V317c-.1 0-.3 0-.5-.1-.2.1-.4.1-.5.1zm7 2.8v.9c-.2.1-.4.2-.8.3-.4.1-.7.1-1.1.1-.8 0-1.4-.2-1.7-.6-.3-.4-.5-1.1-.5-2 0-.9.2-1.5.5-1.9.4-.4.9-.6 1.7-.6.8 0 1.3.2 1.6.5.3.3.5.9.5 1.6v.9h-3.1c0 .4.1.7.3.9.2.2.5.2.9.2.3 0 .6 0 .9-.1.4-.1.6-.1.8-.2zm-1.8-2.8c-.4 0-.7.1-.9.2-.2.2-.2.5-.2.9h2.1v-.2c0-.3-.1-.6-.2-.7-.2-.2-.4-.2-.8-.2zm3.9 2.9-.3 1.7c0 .1-.1.2-.2.3-.1.1-.2.1-.3.1h-.4v-2.1h1.2zm6.6 0v1.1h-4.2v-6.3h4.2v1.1h-3v1.5h2.6v1H235v1.5h3zm2 1.1h-1.2v-4.9h1l.1.5c.2-.2.5-.4.8-.5.3-.1.6-.1 1-.1.5 0 1 .1 1.2.4.3.3.4.7.4 1.2v3.4h-1.2v-3.3c0-.2-.1-.4-.2-.5-.2-.1-.4-.2-.7-.2-.2 0-.4 0-.6.1-.2.1-.4.1-.6.2v3.7zm6 .1c-.6 0-1-.1-1.2-.4-.3-.3-.4-.7-.4-1.2v-3.4h1.2v3.2c0 .3.1.4.2.5.1.1.3.2.6.2.2 0 .4 0 .6-.1.2 0 .4-.1.5-.2V316h1.2v4.9h-1.1v-.3c-.3.1-.5.2-.8.3-.3.2-.6.2-.8.2zm5.9 1.5c-.3 0-.7 0-1-.1-.3 0-.6-.1-.7-.2v-1c.2.1.4.1.7.1.3 0 .6.1.9.1.4 0 .7-.1.9-.2.2-.2.3-.4.3-.8v-.3c-.2.1-.5.2-.8.3-.3.1-.5.1-.8.1-.6 0-1.1-.2-1.4-.5-.3-.4-.4-1-.4-1.8s.2-1.5.5-1.8c.4-.4 1-.5 1.9-.5.3 0 .7 0 1.1.1.4 0 .7.1 1 .1v4c0 .9-.2 1.5-.5 1.9-.4.3-.9.5-1.7.5zm.1-5.6c-.5 0-.9.1-1 .2-.2.2-.2.5-.2 1.1 0 .5.1.8.2 1 .1.2.4.2.8.2.2 0 .4 0 .6-.1.2 0 .4-.1.6-.2V317c-.1 0-.3 0-.4-.1-.3.1-.5.1-.6.1zm4.8 4.1c-.6 0-1-.1-1.2-.4-.3-.3-.4-.7-.4-1.2v-3.4h1.2v3.2c0 .3.1.4.2.5.1.1.4.2.6.2.2 0 .4 0 .6-.1.2 0 .4-.1.5-.2V316h1.2v4.9h-1.1v-.3c-.3.1-.5.2-.8.3-.4.2-.6.2-.8.2zm4.7-.1h-1.1v-1.1h1.1v1.1z"/>
  <text transform="translate(118.563 109.288)" class="st1" style="font-size:24px;font-family:'Blinker-SemiBold'">{{FIRST_NAME}}</text>
  <text transform="translate(119.002 86)" class="st1" style="font-size:14px;font-family:'Blinker-Regular'">{{LAST_NAME}}</text>
  <path class="st1" d="M146.2 571.2H38.7V463.7h107.5v107.5zm-92.9-48h-7.4v3.8h7.3v3.7h-7.3v3.6h11.2v-3.5h3.6v3.5h3.9v-7.2h7.3c.1 1.3.2 2.5.2 3.7-1.2-.1-2.5-.1-3.8-.2v3.7h3.8v-3.5h3.6v7.4H83v3.7h-3.5v11.2h-3.7v7.5h7.4v3.6h3.7v-7.5h-7.4V553h14.9v7.5h-3.7v3.7h3.7v-3.7h3.9V557h7.4v7.3h3.8v-3.6h3.6v3.6h3.8v-3.6h7.4v3.6h3.6v-3.7h-3.5V557h3.6v-3.8h3.7v3.8h7.4v-3.8h-3.5v-3.6h3.5v-3.8h-3.5v-3.6h3.6v-7.6h-3.7v-3.5h-3.7v3.7h3.6v7.5h-3.7v7.4h-3.6v3.7h-3.7V531h3.7v-3.7h3.7v-3.6h3.6v3.5h3.6v-11h-3.7v3.6h-3.8v3.8h-7.4v3.5h-7.4v-3.5h3.6v-22.3h-7.5v7.2h-3.6v-18.4h-3.7v7.3h-3.7v-3.6H98v7.4h-3.7v3.7H83.2v3.8h3.6v3.7h-7.4v3.6h-3.7v-3.7h-3.6v-3.6h3.5v-3.9H72v-3.5h-3.8v3.7c1.3-.1 2.6-.1 3.8-.2-.1 1.2-.2 2.4-.2 3.8h-3.6v3.9h3.6v3.7h-3.6v3.7h14.7v3.7h-7.3v3.6H72v-3.6h-7.5v-3.8h-3.8v-3.6h3.7v-3.7h-3.7v3.7h-3.8v3.5h-3.7v-7.3h-7.4v7.5h7.3c.2 1 .2 2.2.2 3.3zm29.9-33.5h3.7v3.6h-3.7v3.6h-3.6v-7.3h-3.7v11.1h11.2v-7.3h3.7v3.5h3.7v-3.7h-3.6v-3.7H102v-3.7h3.8v-7.5h3.6v-7.4H98.3v3.7h-3.8v3.7h-3.7v7.4h-7.2v-3.6h3.6v-3.8h-3.6v-3.6h-3.8v7.4h-3.6v3.9h7.3c-.3 1.3-.3 2.4-.3 3.7zm29.9 7.4h26V471h-26v26.1zM72 471H45.9v26H72v-26zm-26 93.2h26v-26H46v26zm85.6-59.6v3.6H128v-7.3h-3.8v14.8h3.8V512h3.7v-3.6h3.7v3.6h3.6v-7.4h-7.4zm-74.5-3.7h-7.4v7.3h7.4v-7.3zm3.8 3.7v3.7h3.6v-3.7h-3.6zM87 471v3.7h3.6V471H87zm48.5 89.5v3.7h3.6v-3.7h-3.6z"/>
  <path d="M72.1 504.4h3.6v3.9h-3.5v3.6h3.6v3.7h3.7V512h7.4v-3.7h-3.6v-3.8h11.1v-3.7h3.7v-7.4h3.8v3.6h3.7v-7.3h3.7v18.4h3.6v-7.2h7.5v22.3h-3.6v3.5h7.4v-3.5h7.4v-3.8h3.8v-3.6h3.7v11h-3.6v-3.5h-3.6v3.6h-3.7v3.7h-3.7V553h3.7v3.8h-3.6v3.6h3.5v3.7h-3.6v-3.6h-7.4v3.6h-3.8v-3.6h-3.6v3.6h-3.8v-7.3h-7.4v3.5h-3.9v-7.5h7.4v-3.7h-3.7v-3.8h-7.5v-3.5h-3.5v7.3h7.4v3.7H79.8v-11.2h3.5v-3.7H76v-7.4h-3.6c-.1-1.2-.2-2.4-.2-3.7h-7.3v7.2H61v-3.5h-3.6v3.5H46.2v-3.6h7.3v-3.7h-7.3v-3.8h7.4v3.6h3.6V523h-3.7v-3.7h-7.3v-7.5h7.4v7.3h3.7v-3.5h3.8v3.6h3.8v3.8h7.5v3.6H76V523h7.3v-3.7H68.6v-3.7h3.6v-3.7h-3.6V508h3.6c-.2-1.2-.1-2.4-.1-3.6zm37.2 11.5v-7.5h-3.5v7.4c1.2 0 2.4 0 3.5.1v10.9h3.6v-10.9h-3.6zM87 530.7h3.7v11.1H98v-3.6h-3.6v-3.7h7.3v7.5h-3.5v3.6h7.2v-14.8h-7.3V527h3.5v-18.5H90.5v3.7h-3.6v7.3h7.4v-7.3H98v7.5h-3.7v7.3h-3.9v-3.5h-3.5c.1 2.4.1 4.8.1 7.2h-3.9v-3.6h-7.2v3.6h3.6v3.5h7.4c.1-1.2.1-2.4.1-3.5zm33.3 14.8v-11h-10.9v11h10.9zm-3.6 7.5h3.7v-3.5h-7.2v7.2h3.5V553zm-3.6-37.3h3.5v-7.3h-3.5v7.3zm-52.2 11.1h3.5v-3.5h-3.5v3.5zm48.3 26.2v-3.5h-3.5v3.5h3.5zm-7.3-48.6h3.5v-3.5h-3.5v3.5z"/>
  <path d="M83.2 489.7V486h-7.3v-3.9h3.6v-7.4h3.8v3.6h3.6v3.8h-3.6v3.6h7.2v-7.4h3.7v-3.7H98v-3.7h11.1v7.4h-3.6v7.5h-3.8v3.7H90.6v3.7h3.6v3.7h-3.7v-3.5h-3.7v7.3H75.6v-11.1h3.7v7.3h3.6v-3.6h3.7v-3.6h-3.4zm11.3-3.9h3.6v-7.3h-3.6v7.3zm7.5-7.5h3.5v-3.4H102v3.4zM113.1 497.1V471h26v26.1h-26zm22.2-3.8v-18.4h-18.5v18.4h18.5zM72 471v26H45.9v-26H72zm-22.2 3.8v18.4h18.4v-18.4H49.8zM46 564.2v-26h26v26H46zM68.2 542H49.8v18.3h18.4V542zM128 553v-3.7h3.6v-7.4h3.7v-7.5h-3.6v-3.7h3.7v3.5h3.7v7.6h-3.6v3.6h3.5v3.8h-3.5v3.6h3.5v3.8h-7.4v-3.8c-1.2.2-2.4.2-3.6.2zM131.6 504.6h7.5v7.4h-3.6v-3.6h-3.7v3.6h-3.7v3.7h-3.8v-14.8h3.8v7.3h3.6c-.1-1.2-.1-2.4-.1-3.6zM79.5 553v3.7h7.4v7.5h-3.7v-3.6h-7.4v-7.5c1.3-.1 2.5-.1 3.7-.1zM57.1 500.9v7.3h-7.4v-7.3h7.4zM60.9 504.6h3.6v3.7h-3.6v-3.7zM94.4 560.5v3.7h-3.7v-3.7h3.7zM60.8 515.8v-3.7h3.7v3.7h-3.7zM72.2 504.4c-1.2.1-2.5.1-3.8.2v-3.7h3.8c-.1 1.2-.1 2.4 0 3.5-.1 0 0 0 0 0zM72.1 530.8v3.5h-3.8v-3.7c1.4.1 2.6.1 3.8.2.1 0 0 0 0 0z"/>
  <path d="M87 471h3.6v3.7H87V471zM135.5 560.5h3.6v3.7h-3.6v-3.7z"/>
  <path class="st1" d="M87 530.7v-7.4h3.5v3.5h3.9v-7.3h3.7V512h-3.7v7.3H87V512h3.6v-3.7h11.1v18.5h-3.5v3.8h7.3v14.8h-7.2v-3.6h3.5v-7.5h-7.3v3.7h3.6v3.6h-7.3v-11.1c-1.5.2-2.6.2-3.8.2zM120.3 545.5h-10.9v-11h10.9v11zm-7.2-7.3v3.7h3.6v-3.7h-3.6zM94.4 553.1v-3.7H87v-7.3h3.5v3.5H98v3.8h3.7v3.7c-2.4-.1-4.9-.1-7.3 0 0-.1 0 0 0 0zM87 530.7v3.5h-7.4v-3.5H76v-3.6h7.2v3.6H87zM109.3 515.9h3.7v10.9h-3.6c-.1-3.7-.1-7.3-.1-10.9zM116.7 553v3.7h-3.5v-7.2h7.2v3.5h-3.7zM113.1 515.7v-7.3h3.5v7.3h-3.5zM109.3 515.8h-3.6v-7.4h3.5c.1 2.5.1 5 .1 7.4 0 .1 0 0 0 0zM60.9 526.8v-3.5h3.5v3.5h-3.5zM109.2 553h-3.5v-3.5h3.5v3.5zM101.9 504.4v-3.5h3.5v3.5h-3.5zM53.3 523.3H57v3.5h-3.6c-.1-1.2-.1-2.4-.1-3.5 0-.1 0 0 0 0zM94.5 485.8v-7.3h3.6v7.3h-3.6zM102 478.3v-3.4h3.5v3.4H102zM135.3 493.3h-18.5v-18.4h18.5v18.4zm-14.8-14.8v11.2h11.1v-11.2h-11.1zM49.8 474.8h18.4v18.4H49.8v-18.4zm14.7 3.7H53.4v11.1h11.1v-11.1zM68.2 542v18.3H49.8V542h18.4zm-14.8 3.6v11.1h11.1v-11.1H53.4z"/>
  <path d="M113.1 538.2h3.6v3.7h-3.6v-3.7zM120.5 478.5h11.1v11.2h-11.1v-11.2zM64.5 478.5v11.1H53.4v-11.1h11.1zM53.4 545.6h11.1v11.1H53.4v-11.1z"/>
  <path class="st2" d="M170 270h20v20h-20z"/>
</svg>